<svg width="81" height="33" viewBox="0 0 81 33" fill="none" xmlns="http://www.w3.org/2000/svg">
<path d="M5.84412 6.671C4.93743 6.671 4.15829 6.34521 3.5067 5.69191C2.85857 5.04033 2.5345 4.26291 2.5345 3.36138C2.5345 2.45641 2.85857 1.67899 3.5067 1.03085C4.15829 0.379273 4.93743 0.0517578 5.84412 0.0517578C6.68015 0.0517578 7.4093 0.32756 8.02985 0.879164C7.43171 1.58246 7.1335 2.40986 7.1335 3.36138C7.1335 4.30945 7.43171 5.14547 8.02985 5.87118C7.38517 6.40554 6.65774 6.671 5.84412 6.671ZM11.105 6.671C10.1983 6.671 9.41921 6.34521 8.76762 5.69191C8.11949 5.04033 7.79542 4.26291 7.79542 3.36138C7.79542 2.45641 8.11949 1.67899 8.76762 1.03085C9.41921 0.379273 10.1983 0.0517578 11.105 0.0517578C12.01 0.0517578 12.7874 0.379273 13.4356 1.03085C14.0872 1.67899 14.4147 2.45641 14.4147 3.36138C14.4147 4.26291 14.0872 5.04033 13.4356 5.69191C12.7874 6.34521 12.01 6.671 11.105 6.671ZM21.6269 9.28423L17.8208 13.0903L21.6269 16.8964V23.4811H18.9171L13.1874 17.7238L5.47869 25.4324L0.845215 20.799L16.9934 4.65075L21.6269 9.28423Z" fill="white"/>
<path d="M41.8495 27.8522L37.4435 23.4808H19.3096V16.896H30.8933L23.2811 9.28386L27.9146 4.65039L40.1602 16.896H44.8281V21.5915L46.483 23.2188L41.8495 27.8522ZM30.9277 32.0513C30.021 32.0513 29.2419 31.7238 28.5903 31.0722C27.9422 30.4241 27.6181 29.6467 27.6181 28.7417C27.6181 27.835 27.9422 27.0559 28.5903 26.4043C29.2419 25.7561 30.021 25.4321 30.9277 25.4321C31.8327 25.4321 32.6101 25.7561 33.2583 26.4043C33.9098 27.0559 34.2373 27.835 34.2373 28.7417C34.2373 29.6467 33.9098 30.4241 33.2583 31.0722C32.6101 31.7238 31.8327 32.0513 30.9277 32.0513Z" fill="white"/>
<path d="M53.663 0.244629L70.3077 16.8962V23.4809H67.591L62.6266 18.5165C62.1853 19.5335 61.5458 20.4264 60.7098 21.1987L64.9433 25.4322L60.3098 30.1002L53.7251 23.4809H42.5068V16.8962H47.1058C47.0645 16.6066 47.0248 16.3084 46.9886 15.9998C46.9559 15.693 46.9404 15.3724 46.9404 15.0414C46.9404 13.1022 47.392 11.5094 48.2987 10.2631C49.2037 9.01341 50.3189 8.10154 51.6428 7.5258L49.0296 4.91258L53.663 0.244629ZM53.2286 15.0414C53.2286 15.6585 53.4217 16.1222 53.8078 16.4342C54.1939 16.7428 54.6301 16.8962 55.1179 16.8962C55.5816 16.8962 56.0108 16.7428 56.4073 16.4342C56.802 16.1222 57.0002 15.6585 57.0002 15.0414C57.0002 14.4036 56.8072 13.9296 56.421 13.621C56.0349 13.309 55.6109 13.1522 55.1524 13.1522C54.6869 13.1349 54.2508 13.2866 53.8423 13.6072C53.432 13.9244 53.2286 14.4036 53.2286 15.0414Z" fill="white"/>
<path d="M67.9873 23.4813V16.8965H73.6481V10.3394H80.2329V23.4813H67.9873ZM75.2685 32.0519C74.3618 32.0519 73.5826 31.7243 72.9311 31.0728C72.2829 30.4246 71.9589 29.6472 71.9589 28.7422C71.9589 27.8355 72.2829 27.0564 72.9311 26.4048C73.5826 25.7567 74.3618 25.4326 75.2685 25.4326C76.1734 25.4326 76.9509 25.7567 77.599 26.4048C78.2506 27.0564 78.5781 27.8355 78.5781 28.7422C78.5781 29.6472 78.2506 30.4246 77.599 31.0728C76.9509 31.7243 76.1734 32.0519 75.2685 32.0519Z" fill="white"/>
</svg>
