<svg xmlns="http://www.w3.org/2000/svg" width="41" height="40" viewBox="0 0 41 40" fill="none">
  <path d="M40.9033 0H0.90332V40H40.9033V0Z" fill="#008A4A"/>
  <path d="M40.5305 0.375977H1.2793V39.6272H40.5305V0.375977Z" fill="#00343A"/>
  <path d="M2.05762 20.7432L4.4508 23.1334L2.05762 25.5207V20.7432Z" fill="#76B043"/>
  <path d="M3.65186 23.929V22.3345L4.45056 23.1332L3.65186 23.929Z" fill="#008A4A"/>
  <path d="M2.05762 23.929V22.3345L2.85633 23.1332L2.05762 23.929Z" fill="#008A4A"/>
  <path d="M2.85596 23.1335V21.5391L3.65173 22.3348L2.85596 23.1335Z" fill="#008A4A"/>
  <path d="M2.05762 22.3347V20.7432L2.85633 21.5389L2.05762 22.3347Z" fill="#008A4A"/>
  <path d="M2.85596 24.7253V23.1338L3.65173 23.9296L2.85596 24.7253Z" fill="#008A4A"/>
  <path d="M2.05762 25.5207V23.9292L2.85633 24.725L2.05762 25.5207Z" fill="#008A4A"/>
  <path d="M8.43567 25.5207L6.04541 23.1334L8.43567 20.7432V25.5207Z" fill="#76B043"/>
  <path d="M6.84119 22.3345V23.929L6.04541 23.1332L6.84119 22.3345Z" fill="#008A4A"/>
  <path d="M8.43542 22.3345V23.929L7.63965 23.1332L8.43542 22.3345Z" fill="#008A4A"/>
  <path d="M7.63953 23.1338V24.7253L6.84082 23.9296L7.63953 23.1338Z" fill="#008A4A"/>
  <path d="M8.43542 23.9292V25.5207L7.63965 24.725L8.43542 23.9292Z" fill="#008A4A"/>
  <path d="M7.63953 21.5391V23.1335L6.84082 22.3348L7.63953 21.5391Z" fill="#008A4A"/>
  <path d="M8.43542 20.7432V22.3347L7.63965 21.5389L8.43542 20.7432Z" fill="#008A4A"/>
  <path d="M2.05762 26.3779L4.4508 28.7652L2.05762 31.1555V26.3779Z" fill="#76B043"/>
  <path d="M3.65186 29.5642V27.9697L4.45056 28.7655L3.65186 29.5642Z" fill="#008A4A"/>
  <path d="M2.05762 29.5642V27.9697L2.85633 28.7655L2.05762 29.5642Z" fill="#008A4A"/>
  <path d="M2.85596 28.7654V27.1738L3.65173 27.9696L2.85596 28.7654Z" fill="#008A4A"/>
  <path d="M2.05762 27.9695V26.3779L2.85633 27.1737L2.05762 27.9695Z" fill="#008A4A"/>
  <path d="M2.85596 30.3601V28.7656L3.65173 29.5643L2.85596 30.3601Z" fill="#008A4A"/>
  <path d="M2.05762 31.156V29.5645L2.85633 30.3602L2.05762 31.156Z" fill="#008A4A"/>
  <path d="M8.43567 31.1555L6.04541 28.7652L8.43567 26.3779V31.1555Z" fill="#76B043"/>
  <path d="M6.84119 27.9697V29.5642L6.04541 28.7655L6.84119 27.9697Z" fill="#008A4A"/>
  <path d="M8.43542 27.9697V29.5642L7.63965 28.7655L8.43542 27.9697Z" fill="#008A4A"/>
  <path d="M7.63953 28.7656V30.3601L6.84082 29.5643L7.63953 28.7656Z" fill="#008A4A"/>
  <path d="M8.43542 29.5645V31.156L7.63965 30.3602L8.43542 29.5645Z" fill="#008A4A"/>
  <path d="M7.63953 27.1738V28.7654L6.84082 27.9696L7.63953 27.1738Z" fill="#008A4A"/>
  <path d="M8.43542 26.3779V27.9695L7.63965 27.1737L8.43542 26.3779Z" fill="#008A4A"/>
  <path d="M5.57839 23.1335L8.43553 20.2822H7.7719L7.10827 20.9429H3.81066L4.16597 21.2982H6.75296L6.14513 21.9061H4.77675L5.13206 22.2614H5.78981L5.44332 22.6079L5.24657 22.8046L2.72125 20.2822H2.05762L4.91476 23.1335L2.05762 25.9848L4.91476 28.836L2.05762 31.6873H2.72125L3.35258 31.0589H6.7236L6.36829 30.7036H3.70789L4.31573 30.0958H5.75752L5.40221 29.7405H4.67103L5.03809 29.3763L5.24657 29.1679L7.7719 31.6902H8.43553L5.57839 28.839L8.43553 25.9877L5.57839 23.1364V23.1335ZM5.24657 23.4653L5.91902 24.1378H4.5712L5.24364 23.4653H5.24657ZM4.21882 24.4931H6.27726L6.71478 24.9306H3.7813L4.21882 24.4931ZM3.42599 25.2859H7.0701L7.58984 25.8056H2.90625L3.42599 25.2859ZM5.24951 28.5101L4.54477 27.8053H5.95425L5.24951 28.5101ZM6.30957 27.45H4.18947L3.69614 26.9567H6.80288L6.30957 27.45ZM3.34083 26.6044L2.8945 26.1609H7.60159L7.15525 26.6044H3.33789H3.34083Z" fill="#008A4A"/>
  <path d="M2.05762 8.77734L4.4508 11.1647L2.05762 13.552V8.77734Z" fill="#76B043"/>
  <path d="M3.65186 11.9602V10.3687L4.45056 11.1644L3.65186 11.9602Z" fill="#008A4A"/>
  <path d="M2.05762 11.9602V10.3687L2.85633 11.1644L2.05762 11.9602Z" fill="#008A4A"/>
  <path d="M2.85596 11.1643V9.57275L3.65173 10.3685L2.85596 11.1643Z" fill="#008A4A"/>
  <path d="M2.05762 10.3689V8.77734L2.85633 9.57312L2.05762 10.3689Z" fill="#008A4A"/>
  <path d="M2.85596 12.7561V11.1646L3.65173 11.9603L2.85596 12.7561Z" fill="#008A4A"/>
  <path d="M2.05762 13.5515V11.96L2.85633 12.7557L2.05762 13.5515Z" fill="#008A4A"/>
  <path d="M8.43567 13.552L6.04541 11.1647L8.43567 8.77734V13.552Z" fill="#76B043"/>
  <path d="M6.84119 10.3687V11.9602L6.04541 11.1644L6.84119 10.3687Z" fill="#008A4A"/>
  <path d="M8.43542 10.3687V11.9602L7.63965 11.1644L8.43542 10.3687Z" fill="#008A4A"/>
  <path d="M7.63953 11.1646V12.7561L6.84082 11.9603L7.63953 11.1646Z" fill="#008A4A"/>
  <path d="M8.43542 11.96V13.5515L7.63965 12.7557L8.43542 11.96Z" fill="#008A4A"/>
  <path d="M7.63953 9.57275V11.1643L6.84082 10.3685L7.63953 9.57275Z" fill="#008A4A"/>
  <path d="M8.43542 8.77734V10.3689L7.63965 9.57312L8.43542 8.77734Z" fill="#008A4A"/>
  <path d="M2.05762 14.4121L4.4508 16.7994L2.05762 19.1867V14.4121Z" fill="#76B043"/>
  <path d="M3.65186 17.5954V16.0039L4.45056 16.7997L3.65186 17.5954Z" fill="#008A4A"/>
  <path d="M2.05762 17.5954V16.0039L2.85633 16.7997L2.05762 17.5954Z" fill="#008A4A"/>
  <path d="M2.85596 16.7996V15.208L3.65173 16.0038L2.85596 16.7996Z" fill="#008A4A"/>
  <path d="M2.05762 16.0037V14.4121L2.85633 15.2079L2.05762 16.0037Z" fill="#008A4A"/>
  <path d="M2.85596 18.3909V16.7993L3.65173 17.5951L2.85596 18.3909Z" fill="#008A4A"/>
  <path d="M2.05762 19.1868V17.5952L2.85633 18.391L2.05762 19.1868Z" fill="#008A4A"/>
  <path d="M8.43567 19.1867L6.04541 16.7994L8.43567 14.4121V19.1867Z" fill="#76B043"/>
  <path d="M6.84119 16.0039V17.5954L6.04541 16.7997L6.84119 16.0039Z" fill="#008A4A"/>
  <path d="M8.43542 16.0039V17.5954L7.63965 16.7997L8.43542 16.0039Z" fill="#008A4A"/>
  <path d="M7.63953 16.7993V18.3909L6.84082 17.5951L7.63953 16.7993Z" fill="#008A4A"/>
  <path d="M8.43542 17.5952V19.1868L7.63965 18.391L8.43542 17.5952Z" fill="#008A4A"/>
  <path d="M7.63953 15.208V16.7996L6.84082 16.0038L7.63953 15.208Z" fill="#008A4A"/>
  <path d="M8.43542 14.4121V16.0037L7.63965 15.2079L8.43542 14.4121Z" fill="#008A4A"/>
  <path d="M5.57839 11.1643L8.43553 8.31299H7.7719L7.10827 8.97368H3.81066L4.16597 9.32899H6.75296L6.14513 9.93683H4.77675L5.13206 10.2921H5.78981L5.44332 10.6386L5.24657 10.8354L2.72125 8.31299H2.05762L4.91476 11.1643L2.05762 14.0155L4.91476 16.8668L2.05762 19.7181H2.72125L3.35258 19.0897H6.7236L6.36829 18.7344H3.70789L4.31573 18.1265H5.75752L5.40221 17.7712H4.67103L5.03809 17.4071L5.24657 17.1986L7.7719 19.721H8.43553L5.57839 16.8697L8.43553 14.0185L5.57839 11.1672V11.1643ZM5.24657 11.4961L5.91902 12.1685H4.5712L5.24364 11.4961H5.24657ZM4.21882 12.5238H6.27726L6.71478 12.9614H3.7813L4.21882 12.5238ZM3.42599 13.3167H7.0701L7.58984 13.8364H2.90625L3.42599 13.3167ZM5.24951 16.5409L4.54477 15.8361H5.95425L5.24951 16.5409ZM6.30957 15.4808H4.18947L3.69614 14.9875H6.80288L6.30957 15.4808ZM3.34083 14.6351L2.8945 14.1917H7.60159L7.15525 14.6351H3.33789H3.34083Z" fill="#008A4A"/>
  <path d="M33.3745 20.7432L35.7648 23.1334L33.3745 25.5207V20.7432Z" fill="#76B043"/>
  <path d="M34.9692 23.929V22.3345L35.765 23.1332L34.9692 23.929Z" fill="#008A4A"/>
  <path d="M33.3745 23.929V22.3345L34.1703 23.1332L33.3745 23.929Z" fill="#008A4A"/>
  <path d="M34.1704 23.1335V21.5391L34.9691 22.3348L34.1704 23.1335Z" fill="#008A4A"/>
  <path d="M33.3745 22.3347V20.7432L34.1703 21.5389L33.3745 22.3347Z" fill="#008A4A"/>
  <path d="M34.1704 24.7253V23.1338L34.9691 23.9296L34.1704 24.7253Z" fill="#008A4A"/>
  <path d="M33.3745 25.5207V23.9292L34.1703 24.725L33.3745 25.5207Z" fill="#008A4A"/>
  <path d="M39.7496 25.5207L37.3594 23.1334L39.7496 20.7432V25.5207Z" fill="#76B043"/>
  <path d="M38.1581 22.3345V23.929L37.3594 23.1332L38.1581 22.3345Z" fill="#008A4A"/>
  <path d="M39.7494 22.3345V23.929L38.9536 23.1332L39.7494 22.3345Z" fill="#008A4A"/>
  <path d="M38.954 23.1338V24.7253L38.1582 23.9296L38.954 23.1338Z" fill="#008A4A"/>
  <path d="M39.7494 23.9292V25.5207L38.9536 24.725L39.7494 23.9292Z" fill="#008A4A"/>
  <path d="M38.954 21.5391V23.1335L38.1582 22.3348L38.954 21.5391Z" fill="#008A4A"/>
  <path d="M39.7494 20.7432V22.3347L38.9536 21.5389L39.7494 20.7432Z" fill="#008A4A"/>
  <path d="M33.3745 26.3779L35.7648 28.7652L33.3745 31.1555V26.3779Z" fill="#76B043"/>
  <path d="M34.9692 29.5642V27.9697L35.765 28.7655L34.9692 29.5642Z" fill="#008A4A"/>
  <path d="M33.3745 29.5642V27.9697L34.1703 28.7655L33.3745 29.5642Z" fill="#008A4A"/>
  <path d="M34.1704 28.7654V27.1738L34.9691 27.9696L34.1704 28.7654Z" fill="#008A4A"/>
  <path d="M33.3745 27.9695V26.3779L34.1703 27.1737L33.3745 27.9695Z" fill="#008A4A"/>
  <path d="M34.1704 30.3601V28.7656L34.9691 29.5643L34.1704 30.3601Z" fill="#008A4A"/>
  <path d="M33.3745 31.156V29.5645L34.1703 30.3602L33.3745 31.156Z" fill="#008A4A"/>
  <path d="M39.7496 31.1555L37.3594 28.7652L39.7496 26.3779V31.1555Z" fill="#76B043"/>
  <path d="M38.1581 27.9697V29.5642L37.3594 28.7655L38.1581 27.9697Z" fill="#008A4A"/>
  <path d="M39.7494 27.9697V29.5642L38.9536 28.7655L39.7494 27.9697Z" fill="#008A4A"/>
  <path d="M38.954 28.7656V30.3601L38.1582 29.5643L38.954 28.7656Z" fill="#008A4A"/>
  <path d="M39.7494 29.5645V31.156L38.9536 30.3602L39.7494 29.5645Z" fill="#008A4A"/>
  <path d="M38.954 27.1738V28.7654L38.1582 27.9696L38.954 27.1738Z" fill="#008A4A"/>
  <path d="M39.7494 26.3779V27.9695L38.9536 27.1737L39.7494 26.3779Z" fill="#008A4A"/>
  <path d="M36.8953 23.1335L39.7524 20.2822H39.0888L38.4252 20.9429H35.1276L35.4829 21.2982H38.0699L37.462 21.9061H36.0936L36.4489 22.2614H37.1067L36.7602 22.6079L36.5635 22.8046L34.0381 20.2822H33.3745L36.2317 23.1335L33.3745 25.9848L36.2317 28.836L33.3745 31.6873H34.0381L34.6695 31.0589H38.0405L37.6852 30.7036H35.0248L35.6326 30.0958H37.0744L36.7191 29.7405H35.9879L36.355 29.3763L36.5635 29.1679L39.0888 31.6902H39.7524L36.8953 28.839L39.7524 25.9877L36.8953 23.1364V23.1335ZM36.5635 23.4653L37.2359 24.1378H35.8881L36.5605 23.4653H36.5635ZM35.5357 24.4931H37.5942L38.0317 24.9306H35.0982L35.5357 24.4931ZM34.7429 25.2859H38.387L38.9067 25.8056H34.2231L34.7429 25.2859ZM36.5664 28.5101L35.8617 27.8053H37.2712L36.5664 28.5101ZM37.6265 27.45H35.5064L35.013 26.9567H38.1198L37.6265 27.45ZM34.6577 26.6044L34.2114 26.1609H38.9185L38.4722 26.6044H34.6548H34.6577Z" fill="#008A4A"/>
  <path d="M33.3745 8.77734L35.7648 11.1647L33.3745 13.552V8.77734Z" fill="#76B043"/>
  <path d="M34.9692 11.9602V10.3687L35.765 11.1644L34.9692 11.9602Z" fill="#008A4A"/>
  <path d="M33.3745 11.9602V10.3687L34.1703 11.1644L33.3745 11.9602Z" fill="#008A4A"/>
  <path d="M34.1704 11.1643V9.57275L34.9691 10.3685L34.1704 11.1643Z" fill="#008A4A"/>
  <path d="M33.3745 10.3689V8.77734L34.1703 9.57312L33.3745 10.3689Z" fill="#008A4A"/>
  <path d="M34.1704 12.7561V11.1646L34.9691 11.9603L34.1704 12.7561Z" fill="#008A4A"/>
  <path d="M33.3745 13.5515V11.96L34.1703 12.7557L33.3745 13.5515Z" fill="#008A4A"/>
  <path d="M39.7496 13.552L37.3594 11.1647L39.7496 8.77734V13.552Z" fill="#76B043"/>
  <path d="M38.1581 10.3687V11.9602L37.3594 11.1644L38.1581 10.3687Z" fill="#008A4A"/>
  <path d="M39.7494 10.3687V11.9602L38.9536 11.1644L39.7494 10.3687Z" fill="#008A4A"/>
  <path d="M38.954 11.1646V12.7561L38.1582 11.9603L38.954 11.1646Z" fill="#008A4A"/>
  <path d="M39.7494 11.96V13.5515L38.9536 12.7557L39.7494 11.96Z" fill="#008A4A"/>
  <path d="M38.954 9.57275V11.1643L38.1582 10.3685L38.954 9.57275Z" fill="#008A4A"/>
  <path d="M39.7494 8.77734V10.3689L38.9536 9.57312L39.7494 8.77734Z" fill="#008A4A"/>
  <path d="M33.3745 14.4121L35.7648 16.7994L33.3745 19.1867V14.4121Z" fill="#76B043"/>
  <path d="M34.9692 17.5954V16.0039L35.765 16.7997L34.9692 17.5954Z" fill="#008A4A"/>
  <path d="M33.3745 17.5954V16.0039L34.1703 16.7997L33.3745 17.5954Z" fill="#008A4A"/>
  <path d="M34.1704 16.7996V15.208L34.9691 16.0038L34.1704 16.7996Z" fill="#008A4A"/>
  <path d="M33.3745 16.0037V14.4121L34.1703 15.2079L33.3745 16.0037Z" fill="#008A4A"/>
  <path d="M34.1704 18.3909V16.7993L34.9691 17.5951L34.1704 18.3909Z" fill="#008A4A"/>
  <path d="M33.3745 19.1868V17.5952L34.1703 18.391L33.3745 19.1868Z" fill="#008A4A"/>
  <path d="M39.7496 19.1867L37.3594 16.7994L39.7496 14.4121V19.1867Z" fill="#76B043"/>
  <path d="M38.1581 16.0039V17.5954L37.3594 16.7997L38.1581 16.0039Z" fill="#008A4A"/>
  <path d="M39.7494 16.0039V17.5954L38.9536 16.7997L39.7494 16.0039Z" fill="#008A4A"/>
  <path d="M38.954 16.7993V18.3909L38.1582 17.5951L38.954 16.7993Z" fill="#008A4A"/>
  <path d="M39.7494 17.5952V19.1868L38.9536 18.391L39.7494 17.5952Z" fill="#008A4A"/>
  <path d="M38.954 15.208V16.7996L38.1582 16.0038L38.954 15.208Z" fill="#008A4A"/>
  <path d="M39.7494 14.4121V16.0037L38.9536 15.2079L39.7494 14.4121Z" fill="#008A4A"/>
  <path d="M36.8953 11.1643L39.7524 8.31299H39.0888L38.4252 8.97368H35.1276L35.4829 9.32899H38.0699L37.462 9.93683H36.0936L36.4489 10.2921H37.1067L36.7602 10.6386L36.5635 10.8354L34.0381 8.31299H33.3745L36.2317 11.1643L33.3745 14.0155L36.2317 16.8668L33.3745 19.7181H34.0381L34.6695 19.0897H38.0405L37.6852 18.7344H35.0248L35.6326 18.1265H37.0744L36.7191 17.7712H35.9879L36.355 17.4071L36.5635 17.1986L39.0888 19.721H39.7524L36.8953 16.8697L39.7524 14.0185L36.8953 11.1672V11.1643ZM36.5635 11.4961L37.2359 12.1685H35.8881L36.5605 11.4961H36.5635ZM35.5357 12.5238H37.5942L38.0317 12.9614H35.0982L35.5357 12.5238ZM34.7429 13.3167H38.387L38.9067 13.8364H34.2231L34.7429 13.3167ZM36.5664 16.5409L35.8617 15.8361H37.2712L36.5664 16.5409ZM37.6265 15.4808H35.5064L35.013 14.9875H38.1198L37.6265 15.4808ZM34.6577 14.6351L34.2114 14.1917H38.9185L38.4722 14.6351H34.6548H34.6577Z" fill="#008A4A"/>
  <path d="M21.6465 38.8463L24.0367 36.4561L26.4241 38.8463H21.6465Z" fill="#76B043"/>
  <path d="M24.8327 37.2518H23.2412L24.037 36.4561L24.8327 37.2518Z" fill="#008A4A"/>
  <path d="M24.8327 38.8466H23.2412L24.037 38.0508L24.8327 38.8466Z" fill="#008A4A"/>
  <path d="M24.0369 38.0502H22.4453L23.2411 37.2515L24.0369 38.0502Z" fill="#008A4A"/>
  <path d="M23.241 38.8466H21.6465L22.4452 38.0508L23.241 38.8466Z" fill="#008A4A"/>
  <path d="M25.6282 38.0502H24.0366L24.8324 37.2515L25.6282 38.0502Z" fill="#008A4A"/>
  <path d="M26.4241 38.8466H24.8325L25.6283 38.0508L26.4241 38.8466Z" fill="#008A4A"/>
  <path d="M26.4241 32.4683L24.0367 34.8615L21.6465 32.4683H26.4241Z" fill="#76B043"/>
  <path d="M23.2412 34.0625H24.8327L24.037 34.8612L23.2412 34.0625Z" fill="#008A4A"/>
  <path d="M23.2412 32.4683H24.8327L24.037 33.267L23.2412 32.4683Z" fill="#008A4A"/>
  <path d="M24.0366 33.2671H25.6282L24.8324 34.0629L24.0366 33.2671Z" fill="#008A4A"/>
  <path d="M24.8325 32.4683H26.4241L25.6283 33.267L24.8325 32.4683Z" fill="#008A4A"/>
  <path d="M22.4453 33.2671H24.0369L23.2411 34.0629L22.4453 33.2671Z" fill="#008A4A"/>
  <path d="M21.6465 32.4683H23.241L22.4452 33.267L21.6465 32.4683Z" fill="#008A4A"/>
  <path d="M27.2817 38.8463L29.672 36.4561L32.0593 38.8463H27.2817Z" fill="#76B043"/>
  <path d="M30.4675 37.2518H28.876L29.6718 36.4561L30.4675 37.2518Z" fill="#008A4A"/>
  <path d="M30.4675 38.8466H28.876L29.6718 38.0508L30.4675 38.8466Z" fill="#008A4A"/>
  <path d="M29.6721 38.0502H28.0806L28.8763 37.2515L29.6721 38.0502Z" fill="#008A4A"/>
  <path d="M28.8762 38.8466H27.2817L28.0804 38.0508L28.8762 38.8466Z" fill="#008A4A"/>
  <path d="M31.2634 38.0502H29.6719L30.4676 37.2515L31.2634 38.0502Z" fill="#008A4A"/>
  <path d="M32.0593 38.8466H30.4678L31.2635 38.0508L32.0593 38.8466Z" fill="#008A4A"/>
  <path d="M32.0593 32.4683L29.672 34.8615L27.2817 32.4683H32.0593Z" fill="#76B043"/>
  <path d="M28.876 34.0625H30.4675L29.6718 34.8612L28.876 34.0625Z" fill="#008A4A"/>
  <path d="M28.876 32.4683H30.4675L29.6718 33.267L28.876 32.4683Z" fill="#008A4A"/>
  <path d="M29.6719 33.2671H31.2634L30.4676 34.0629L29.6719 33.2671Z" fill="#008A4A"/>
  <path d="M30.4678 32.4683H32.0593L31.2635 33.267L30.4678 32.4683Z" fill="#008A4A"/>
  <path d="M28.0806 33.2671H29.6721L28.8763 34.0629L28.0806 33.2671Z" fill="#008A4A"/>
  <path d="M27.2817 32.4683H28.8762L28.0804 33.267L27.2817 32.4683Z" fill="#008A4A"/>
  <path d="M24.0368 35.3254L21.1855 32.4683V33.1319L21.8462 33.7955V37.0931L22.2015 36.7378V34.1508L22.8094 34.7587V36.1271L23.1647 35.7717V35.114L23.5112 35.4605L23.7079 35.6572L21.1855 38.1826V38.8462L24.0368 35.989L26.8881 38.8462L29.7393 35.989L32.5906 38.8462V38.1826L31.9622 37.5512V34.1802L31.6069 34.5355V37.1959L30.9991 36.5881V35.1463L30.6438 35.5016V36.2328L30.2796 35.8657L30.0712 35.6572L32.5936 33.1319V32.4683L29.7423 35.3254L26.891 32.4683L24.0397 35.3254H24.0368ZM24.3686 35.6572L25.0411 34.9848V36.3326L24.3686 35.6602V35.6572ZM25.3964 36.685V34.6265L25.8339 34.189V37.1225L25.3964 36.685ZM26.1892 37.4778V33.8337L26.709 33.314V37.9976L26.1892 37.4778ZM29.4134 35.6543L28.7087 36.359V34.9495L29.4134 35.6543ZM28.3534 34.5942V36.7143L27.86 37.2077V34.1009L28.3534 34.5942ZM27.5077 37.563L27.0643 38.0093V33.3022L27.5077 33.7485V37.5659V37.563Z" fill="#008A4A"/>
  <path d="M9.68066 38.8463L12.068 36.4561L14.4553 38.8463H9.68066Z" fill="#76B043"/>
  <path d="M12.8635 37.2518H11.272L12.0677 36.4561L12.8635 37.2518Z" fill="#008A4A"/>
  <path d="M12.8635 38.8466H11.272L12.0677 38.0508L12.8635 38.8466Z" fill="#008A4A"/>
  <path d="M12.0676 38.0502H10.4761L11.2718 37.2515L12.0676 38.0502Z" fill="#008A4A"/>
  <path d="M11.2722 38.8466H9.68066L10.4764 38.0508L11.2722 38.8466Z" fill="#008A4A"/>
  <path d="M13.6594 38.0502H12.0679L12.8636 37.2515L13.6594 38.0502Z" fill="#008A4A"/>
  <path d="M14.4548 38.8466H12.8633L13.6591 38.0508L14.4548 38.8466Z" fill="#008A4A"/>
  <path d="M14.4553 32.4683L12.068 34.8615L9.68066 32.4683H14.4553Z" fill="#76B043"/>
  <path d="M11.272 34.0625H12.8635L12.0677 34.8612L11.272 34.0625Z" fill="#008A4A"/>
  <path d="M11.272 32.4683H12.8635L12.0677 33.267L11.272 32.4683Z" fill="#008A4A"/>
  <path d="M12.0679 33.2671H13.6594L12.8636 34.0629L12.0679 33.2671Z" fill="#008A4A"/>
  <path d="M12.8633 32.4683H14.4548L13.6591 33.267L12.8633 32.4683Z" fill="#008A4A"/>
  <path d="M10.4761 33.2671H12.0676L11.2718 34.0629L10.4761 33.2671Z" fill="#008A4A"/>
  <path d="M9.68066 32.4683H11.2722L10.4764 33.267L9.68066 32.4683Z" fill="#008A4A"/>
  <path d="M15.3154 38.8463L17.7027 36.4561L20.0901 38.8463H15.3154Z" fill="#76B043"/>
  <path d="M18.4983 37.2518H16.9067L17.7025 36.4561L18.4983 37.2518Z" fill="#008A4A"/>
  <path d="M18.4983 38.8466H16.9067L17.7025 38.0508L18.4983 38.8466Z" fill="#008A4A"/>
  <path d="M17.7029 38.0502H16.1113L16.9071 37.2515L17.7029 38.0502Z" fill="#008A4A"/>
  <path d="M16.907 38.8466H15.3154L16.1112 38.0508L16.907 38.8466Z" fill="#008A4A"/>
  <path d="M19.2942 38.0502H17.7026L18.4984 37.2515L19.2942 38.0502Z" fill="#008A4A"/>
  <path d="M20.0901 38.8466H18.4985L19.2943 38.0508L20.0901 38.8466Z" fill="#008A4A"/>
  <path d="M20.0901 32.4683L17.7027 34.8615L15.3154 32.4683H20.0901Z" fill="#76B043"/>
  <path d="M16.9067 34.0625H18.4983L17.7025 34.8612L16.9067 34.0625Z" fill="#008A4A"/>
  <path d="M16.9067 32.4683H18.4983L17.7025 33.267L16.9067 32.4683Z" fill="#008A4A"/>
  <path d="M17.7026 33.2671H19.2942L18.4984 34.0629L17.7026 33.2671Z" fill="#008A4A"/>
  <path d="M18.4985 32.4683H20.0901L19.2943 33.267L18.4985 32.4683Z" fill="#008A4A"/>
  <path d="M16.1113 33.2671H17.7029L16.9071 34.0629L16.1113 33.2671Z" fill="#008A4A"/>
  <path d="M15.3154 32.4683H16.907L16.1112 33.267L15.3154 32.4683Z" fill="#008A4A"/>
  <path d="M12.0676 35.3254L9.21631 32.4683V33.1319L9.877 33.7955V37.0931L10.2323 36.7378V34.1508L10.8402 34.7587V36.1271L11.1955 35.7717V35.114L11.542 35.4605L11.7387 35.6572L9.21631 38.1826V38.8462L12.0676 35.989L14.9188 38.8462L17.7701 35.989L20.6214 38.8462V38.1826L19.993 37.5512V34.1802L19.6377 34.5355V37.1959L19.0298 36.5881V35.1463L18.6745 35.5016V36.2328L18.3104 35.8657L18.1019 35.6572L20.6243 33.1319V32.4683L17.773 35.3254L14.9218 32.4683L12.0705 35.3254H12.0676ZM12.3994 35.6572L13.0718 34.9848V36.3326L12.3994 35.6602V35.6572ZM13.4271 36.685V34.6265L13.8647 34.189V37.1225L13.4271 36.685ZM14.22 37.4778V33.8337L14.7397 33.314V37.9976L14.22 37.4778ZM17.4442 35.6543L16.7394 36.359V34.9495L17.4442 35.6543ZM16.3841 34.5942V36.7143L15.8908 37.2077V34.1009L16.3841 34.5942ZM15.5384 37.563L15.095 38.0093V33.3022L15.5384 33.7485V37.5659V37.563Z" fill="#008A4A"/>
  <path d="M21.6465 7.53234L24.0367 5.14209L26.4241 7.53234H21.6465Z" fill="#76B043"/>
  <path d="M24.8327 5.93786H23.2412L24.037 5.14209L24.8327 5.93786Z" fill="#008A4A"/>
  <path d="M24.8327 7.5321H23.2412L24.037 6.73633L24.8327 7.5321Z" fill="#008A4A"/>
  <path d="M24.0369 6.73621H22.4453L23.2411 5.9375L24.0369 6.73621Z" fill="#008A4A"/>
  <path d="M23.241 7.5321H21.6465L22.4452 6.73633L23.241 7.5321Z" fill="#008A4A"/>
  <path d="M25.6282 6.73621H24.0366L24.8324 5.9375L25.6282 6.73621Z" fill="#008A4A"/>
  <path d="M26.4241 7.5321H24.8325L25.6283 6.73633L26.4241 7.5321Z" fill="#008A4A"/>
  <path d="M26.4241 1.1543L24.0367 3.54748L21.6465 1.1543H26.4241Z" fill="#76B043"/>
  <path d="M23.2412 2.74854H24.8327L24.037 3.54724L23.2412 2.74854Z" fill="#008A4A"/>
  <path d="M23.2412 1.1543H24.8327L24.037 1.95301L23.2412 1.1543Z" fill="#008A4A"/>
  <path d="M24.0366 1.95312H25.6282L24.8324 2.74889L24.0366 1.95312Z" fill="#008A4A"/>
  <path d="M24.8325 1.1543H26.4241L25.6283 1.95301L24.8325 1.1543Z" fill="#008A4A"/>
  <path d="M22.4453 1.95312H24.0369L23.2411 2.74889L22.4453 1.95312Z" fill="#008A4A"/>
  <path d="M21.6465 1.1543H23.241L22.4452 1.95301L21.6465 1.1543Z" fill="#008A4A"/>
  <path d="M27.2817 7.53234L29.672 5.14209L32.0593 7.53234H27.2817Z" fill="#76B043"/>
  <path d="M30.4675 5.93786H28.876L29.6718 5.14209L30.4675 5.93786Z" fill="#008A4A"/>
  <path d="M30.4675 7.5321H28.876L29.6718 6.73633L30.4675 7.5321Z" fill="#008A4A"/>
  <path d="M29.6721 6.73621H28.0806L28.8763 5.9375L29.6721 6.73621Z" fill="#008A4A"/>
  <path d="M28.8762 7.5321H27.2817L28.0804 6.73633L28.8762 7.5321Z" fill="#008A4A"/>
  <path d="M31.2634 6.73621H29.6719L30.4676 5.9375L31.2634 6.73621Z" fill="#008A4A"/>
  <path d="M32.0593 7.5321H30.4678L31.2635 6.73633L32.0593 7.5321Z" fill="#008A4A"/>
  <path d="M32.0593 1.1543L29.672 3.54748L27.2817 1.1543H32.0593Z" fill="#76B043"/>
  <path d="M28.876 2.74854H30.4675L29.6718 3.54724L28.876 2.74854Z" fill="#008A4A"/>
  <path d="M28.876 1.1543H30.4675L29.6718 1.95301L28.876 1.1543Z" fill="#008A4A"/>
  <path d="M29.6719 1.95312H31.2634L30.4676 2.74889L29.6719 1.95312Z" fill="#008A4A"/>
  <path d="M30.4678 1.1543H32.0593L31.2635 1.95301L30.4678 1.1543Z" fill="#008A4A"/>
  <path d="M28.0806 1.95312H29.6721L28.8763 2.74889L28.0806 1.95312Z" fill="#008A4A"/>
  <path d="M27.2817 1.1543H28.8762L28.0804 1.95301L27.2817 1.1543Z" fill="#008A4A"/>
  <path d="M24.0368 4.01144L21.1855 1.1543V1.81793L21.8462 2.48156V5.77917L22.2015 5.42386V2.83687L22.8094 3.44471V4.81308L23.1647 4.45778V3.80002L23.5112 4.14652L23.7079 4.34326L21.1855 6.86858V7.53221L24.0368 4.67507L26.8881 7.53221L29.7393 4.67507L32.5906 7.53221V6.86858L31.9622 6.23725V2.86623L31.6069 3.22154V5.88194L30.9991 5.2741V3.83232L30.6438 4.18763V4.91879L30.2796 4.55174L30.0712 4.34326L32.5936 1.81793V1.1543L29.7423 4.01144L26.891 1.1543L24.0397 4.01144H24.0368ZM24.3686 4.34326L25.0411 3.67081V5.01863L24.3686 4.34619V4.34326ZM25.3964 5.37101V3.31257L25.8339 2.87504V5.80853L25.3964 5.37101ZM26.1892 6.16384V2.51973L26.709 1.99998V6.68359L26.1892 6.16384ZM29.4134 4.34032L28.7087 5.04506V3.63558L29.4134 4.34032ZM28.3534 3.28027V5.40037L27.86 5.89369V2.78695L28.3534 3.28027ZM27.5077 6.24899L27.0643 6.69533V1.98824L27.5077 2.43458V6.25193V6.24899Z" fill="#008A4A"/>
  <path d="M9.68066 7.53234L12.068 5.14209L14.4553 7.53234H9.68066Z" fill="#76B043"/>
  <path d="M12.8635 5.93786H11.272L12.0677 5.14209L12.8635 5.93786Z" fill="#008A4A"/>
  <path d="M12.8635 7.5321H11.272L12.0677 6.73633L12.8635 7.5321Z" fill="#008A4A"/>
  <path d="M12.0676 6.73621H10.4761L11.2718 5.9375L12.0676 6.73621Z" fill="#008A4A"/>
  <path d="M11.2722 7.5321H9.68066L10.4764 6.73633L11.2722 7.5321Z" fill="#008A4A"/>
  <path d="M13.6594 6.73621H12.0679L12.8636 5.9375L13.6594 6.73621Z" fill="#008A4A"/>
  <path d="M14.4548 7.5321H12.8633L13.6591 6.73633L14.4548 7.5321Z" fill="#008A4A"/>
  <path d="M14.4553 1.1543L12.068 3.54748L9.68066 1.1543H14.4553Z" fill="#76B043"/>
  <path d="M11.272 2.74854H12.8635L12.0677 3.54724L11.272 2.74854Z" fill="#008A4A"/>
  <path d="M11.272 1.1543H12.8635L12.0677 1.95301L11.272 1.1543Z" fill="#008A4A"/>
  <path d="M12.0679 1.95312H13.6594L12.8636 2.74889L12.0679 1.95312Z" fill="#008A4A"/>
  <path d="M12.8633 1.1543H14.4548L13.6591 1.95301L12.8633 1.1543Z" fill="#008A4A"/>
  <path d="M10.4761 1.95312H12.0676L11.2718 2.74889L10.4761 1.95312Z" fill="#008A4A"/>
  <path d="M9.68066 1.1543H11.2722L10.4764 1.95301L9.68066 1.1543Z" fill="#008A4A"/>
  <path d="M15.3154 7.53234L17.7027 5.14209L20.0901 7.53234H15.3154Z" fill="#76B043"/>
  <path d="M18.4983 5.93786H16.9067L17.7025 5.14209L18.4983 5.93786Z" fill="#008A4A"/>
  <path d="M18.4983 7.5321H16.9067L17.7025 6.73633L18.4983 7.5321Z" fill="#008A4A"/>
  <path d="M17.7029 6.73621H16.1113L16.9071 5.9375L17.7029 6.73621Z" fill="#008A4A"/>
  <path d="M16.907 7.5321H15.3154L16.1112 6.73633L16.907 7.5321Z" fill="#008A4A"/>
  <path d="M19.2942 6.73621H17.7026L18.4984 5.9375L19.2942 6.73621Z" fill="#008A4A"/>
  <path d="M20.0901 7.5321H18.4985L19.2943 6.73633L20.0901 7.5321Z" fill="#008A4A"/>
  <path d="M20.0901 1.1543L17.7027 3.54748L15.3154 1.1543H20.0901Z" fill="#76B043"/>
  <path d="M16.9067 2.74854H18.4983L17.7025 3.54724L16.9067 2.74854Z" fill="#008A4A"/>
  <path d="M16.9067 1.1543H18.4983L17.7025 1.95301L16.9067 1.1543Z" fill="#008A4A"/>
  <path d="M17.7026 1.95312H19.2942L18.4984 2.74889L17.7026 1.95312Z" fill="#008A4A"/>
  <path d="M18.4985 1.1543H20.0901L19.2943 1.95301L18.4985 1.1543Z" fill="#008A4A"/>
  <path d="M16.1113 1.95312H17.7029L16.9071 2.74889L16.1113 1.95312Z" fill="#008A4A"/>
  <path d="M15.3154 1.1543H16.907L16.1112 1.95301L15.3154 1.1543Z" fill="#008A4A"/>
  <path d="M12.0676 4.01144L9.21631 1.1543V1.81793L9.877 2.48156V5.77917L10.2323 5.42386V2.83687L10.8402 3.44471V4.81308L11.1955 4.45778V3.80002L11.542 4.14652L11.7387 4.34326L9.21631 6.86858V7.53221L12.0676 4.67507L14.9188 7.53221L17.7701 4.67507L20.6214 7.53221V6.86858L19.993 6.23725V2.86623L19.6377 3.22154V5.88194L19.0298 5.2741V3.83232L18.6745 4.18763V4.91879L18.3104 4.55174L18.1019 4.34326L20.6243 1.81793V1.1543L17.773 4.01144L14.9218 1.1543L12.0705 4.01144H12.0676ZM12.3994 4.34326L13.0718 3.67081V5.01863L12.3994 4.34619V4.34326ZM13.4271 5.37101V3.31257L13.8647 2.87504V5.80853L13.4271 5.37101ZM14.22 6.16384V2.51973L14.7397 1.99998V6.68359L14.22 6.16384ZM17.4442 4.34032L16.7394 5.04506V3.63558L17.4442 4.34032ZM16.3841 3.28027V5.40037L15.8908 5.89369V2.78695L16.3841 3.28027ZM15.5384 6.24899L15.095 6.69533V1.98824L15.5384 2.43458V6.25193V6.24899Z" fill="#008A4A"/>
  <path d="M16.8069 21.9913C16.9331 21.4892 16.8157 20.9371 16.4427 20.5261C16.0698 20.115 15.5325 19.9417 15.0215 20.018C14.8952 20.5202 15.0127 21.0722 15.3856 21.4833C15.7586 21.8944 16.2959 22.0677 16.8069 21.9913Z" fill="#76B043"/>
  <path d="M15.8645 17.316C15.9907 16.8139 15.8733 16.2619 15.5004 15.8508C15.1274 15.4397 14.5901 15.2664 14.0791 15.3428C13.9529 15.8449 14.0703 16.3969 14.4432 16.808C14.8162 17.2191 15.3535 17.3924 15.8645 17.316Z" fill="#76B043"/>
  <path d="M12.4465 12.7325C12.5728 12.2304 12.4553 11.6784 12.0824 11.2673C11.7095 10.8562 11.1721 10.6829 10.6612 10.7593C10.5349 11.2614 10.6524 11.8134 11.0253 12.2245C11.3982 12.6356 11.9356 12.8089 12.4465 12.7325Z" fill="#76B043"/>
  <path d="M19.0744 14.5472C19.3622 14.1184 19.4386 13.5576 19.2271 13.0437C19.0157 12.5298 18.5694 12.1863 18.0614 12.0835C17.7736 12.5122 17.6973 13.0731 17.9087 13.5869C18.1201 14.1008 18.5664 14.4444 19.0744 14.5472Z" fill="#76B043"/>
  <path d="M10.84 19.8212C10.4289 20.1941 10.2557 20.7315 10.332 21.2424C10.8341 21.3687 11.3862 21.2512 11.7973 20.8783C12.2084 20.5054 12.3816 19.968 12.3053 19.4571C11.8032 19.3308 11.2511 19.4483 10.84 19.8212Z" fill="#76B043"/>
  <path d="M16.1528 25.6C16.5639 25.227 16.7371 24.6897 16.6608 24.1787C16.1586 24.0525 15.6066 24.1699 15.1955 24.5429C14.7844 24.9158 14.6111 25.4532 14.6875 25.9641C15.1896 26.0904 15.7417 25.9729 16.1528 25.6Z" fill="#76B043"/>
  <path d="M10.6991 16.4706C11.1102 16.0977 11.2835 15.5603 11.2071 15.0493C10.705 14.9231 10.153 15.0405 9.74187 15.4135C9.33077 15.7864 9.15752 16.3238 9.23387 16.8347C9.73599 16.961 10.288 16.8435 10.6991 16.4706Z" fill="#76B043"/>
  <path d="M16.1528 11.7958C16.5639 11.4228 16.7371 10.8855 16.6608 10.3745C16.1586 10.2483 15.6066 10.3657 15.1955 10.7387C14.7844 11.1116 14.6111 11.649 14.6875 12.1599C15.1896 12.2862 15.7417 12.1687 16.1528 11.7958Z" fill="#76B043"/>
  <path d="M26.3095 15.8508C25.9365 16.2619 25.8191 16.8139 25.9453 17.316C26.4563 17.3924 26.9936 17.2191 27.3666 16.808C27.7395 16.3969 27.857 15.8449 27.7307 15.3428C27.2197 15.2664 26.6824 15.4397 26.3095 15.8508Z" fill="#76B043"/>
  <path d="M29.3633 12.7325C29.8742 12.8089 30.4116 12.6356 30.7845 12.2245C31.1575 11.8134 31.2749 11.2614 31.1487 10.7593C30.6377 10.6829 30.1004 10.8562 29.7274 11.2673C29.3545 11.6784 29.237 12.2304 29.3633 12.7325Z" fill="#76B043"/>
  <path d="M27.1403 17.6982C24.9908 17.6982 23.0616 18.6761 21.7813 20.2118C22.4126 16.97 25.2727 14.5151 28.6995 14.5151H32.5961V13.0234H28.6995C26.4179 13.0234 24.2743 13.9102 22.6622 15.5253C22.2863 15.9011 21.9487 16.3093 21.6521 16.738V14.753C21.6521 12.0427 23.8573 9.83741 26.5676 9.83741H29.4776V8.3457H26.5676C24.1157 8.3457 21.9839 9.72876 20.9062 11.7549C19.8286 9.72876 17.6967 8.3457 15.2448 8.3457H12.3348V9.83741H15.2448C17.9551 9.83741 20.1604 12.0427 20.1604 14.753V16.738C19.8638 16.3064 19.5261 15.9011 19.1502 15.5253C17.5381 13.9132 15.3945 13.0234 13.1129 13.0234H9.21631V14.5151H13.1129C16.5368 14.5151 19.3998 16.97 20.0312 20.2118C18.7509 18.6761 16.8246 17.6982 14.6722 17.6982H9.21631V19.1899H14.6722C17.45 19.1899 19.7522 21.266 20.1134 23.9469C19.1502 22.9779 17.8171 22.373 16.346 22.373H13.894V23.8647H16.346C18.1871 23.8647 19.7258 25.1744 20.084 26.9127C19.714 28.7656 18.0755 30.1692 16.1169 30.1692H15.4533V31.6609H16.1169C18.1607 31.6609 19.9489 30.548 20.9062 28.8977C21.8664 30.548 23.6547 31.6609 25.6955 31.6609H26.3592V30.1692H25.6955C23.734 30.1692 22.0955 28.7686 21.7284 26.9127C22.0837 25.1773 23.6253 23.8647 25.4665 23.8647H27.9184V22.373H25.4665C23.9953 22.373 22.6622 22.975 21.6991 23.9469C22.0573 21.266 24.3595 19.1899 27.1403 19.1899H32.5961V17.6982H27.1403Z" fill="#76B043"/>
  <path d="M22.5835 13.0437C22.3721 13.5576 22.4484 14.1184 22.7362 14.5472C23.2412 14.4444 23.6905 14.1008 23.9019 13.5869C24.1134 13.0731 24.037 12.5122 23.7492 12.0835C23.2442 12.1863 22.7949 12.5298 22.5835 13.0437Z" fill="#76B043"/>
  <path d="M30.9667 19.8212C30.5556 19.4483 30.0036 19.3308 29.5014 19.4571C29.4251 19.968 29.5983 20.5054 30.0094 20.8783C30.4205 21.2512 30.9726 21.3687 31.4747 21.2424C31.5511 20.7315 31.3778 20.1941 30.9667 19.8212Z" fill="#76B043"/>
  <path d="M25.1494 24.1787C25.073 24.6897 25.2463 25.227 25.6574 25.6C26.0685 25.9729 26.6205 26.0904 27.1227 25.9641C27.199 25.4532 27.0258 24.9158 26.6147 24.5429C26.2036 24.1699 25.6515 24.0525 25.1494 24.1787Z" fill="#76B043"/>
  <path d="M30.6025 15.0493C30.5262 15.5603 30.6994 16.0977 31.1105 16.4706C31.5216 16.8435 32.0737 16.961 32.5758 16.8347C32.6521 16.3238 32.4789 15.7864 32.0678 15.4135C31.6567 15.0405 31.1046 14.9231 30.6025 15.0493Z" fill="#76B043"/>
  <path d="M25.1494 10.3716C25.073 10.8826 25.2463 11.4199 25.6574 11.7928C26.0685 12.1658 26.6205 12.2832 27.1227 12.157C27.199 11.646 27.0258 11.1087 26.6147 10.7357C26.2036 10.3628 25.6515 10.2453 25.1494 10.3716Z" fill="#76B043"/>
  <path d="M26.3595 30.1309H15.4507V31.6901H26.3595V30.1309Z" fill="#76B043"/>
  <path d="M20.9036 9.09114L21.6847 8.31299H20.1255L20.9036 9.09114Z" fill="#008A4A"/>
  <path d="M13.1133 11.0909C13.3566 11.0909 13.5538 10.8937 13.5538 10.6504C13.5538 10.4072 13.3566 10.21 13.1133 10.21C12.8701 10.21 12.6729 10.4072 12.6729 10.6504C12.6729 10.8937 12.8701 11.0909 13.1133 11.0909Z" fill="#008A4A"/>
  <path d="M11.5537 17.3253C11.797 17.3253 11.9942 17.1281 11.9942 16.8848C11.9942 16.6415 11.797 16.4443 11.5537 16.4443C11.3105 16.4443 11.1133 16.6415 11.1133 16.8848C11.1133 17.1281 11.3105 17.3253 11.5537 17.3253Z" fill="#008A4A"/>
  <path d="M9.99466 9.53181C10.2379 9.53181 10.4351 9.3346 10.4351 9.09134C10.4351 8.84808 10.2379 8.65088 9.99466 8.65088C9.7514 8.65088 9.5542 8.84808 9.5542 9.09134C9.5542 9.3346 9.7514 9.53181 9.99466 9.53181Z" fill="#008A4A"/>
  <path d="M17.7881 22.0001C18.0314 22.0001 18.2286 21.8029 18.2286 21.5596C18.2286 21.3163 18.0314 21.1191 17.7881 21.1191C17.5449 21.1191 17.3477 21.3163 17.3477 21.5596C17.3477 21.8029 17.5449 22.0001 17.7881 22.0001Z" fill="#008A4A"/>
  <path d="M13.1133 22.0001C13.3566 22.0001 13.5538 21.8029 13.5538 21.5596C13.5538 21.3163 13.3566 21.1191 13.1133 21.1191C12.8701 21.1191 12.6729 21.3163 12.6729 21.5596C12.6729 21.8029 12.8701 22.0001 13.1133 22.0001Z" fill="#008A4A"/>
  <path d="M28.6968 11.0909C28.9401 11.0909 29.1373 10.8937 29.1373 10.6504C29.1373 10.4072 28.9401 10.21 28.6968 10.21C28.4536 10.21 28.2563 10.4072 28.2563 10.6504C28.2563 10.8937 28.4536 11.0909 28.6968 11.0909Z" fill="#008A4A"/>
  <path d="M30.2559 17.3253C30.4992 17.3253 30.6964 17.1281 30.6964 16.8848C30.6964 16.6415 30.4992 16.4443 30.2559 16.4443C30.0126 16.4443 29.8154 16.6415 29.8154 16.8848C29.8154 17.1281 30.0126 17.3253 30.2559 17.3253Z" fill="#008A4A"/>
  <path d="M31.815 9.53181C32.0582 9.53181 32.2554 9.3346 32.2554 9.09134C32.2554 8.84808 32.0582 8.65088 31.815 8.65088C31.5717 8.65088 31.3745 8.84808 31.3745 9.09134C31.3745 9.3346 31.5717 9.53181 31.815 9.53181Z" fill="#008A4A"/>
  <path d="M24.022 22.0001C24.2653 22.0001 24.4625 21.8029 24.4625 21.5596C24.4625 21.3163 24.2653 21.1191 24.022 21.1191C23.7787 21.1191 23.5815 21.3163 23.5815 21.5596C23.5815 21.8029 23.7787 22.0001 24.022 22.0001Z" fill="#008A4A"/>
  <path d="M28.6968 22.0001C28.9401 22.0001 29.1373 21.8029 29.1373 21.5596C29.1373 21.3163 28.9401 21.1191 28.6968 21.1191C28.4536 21.1191 28.2563 21.3163 28.2563 21.5596C28.2563 21.8029 28.4536 22.0001 28.6968 22.0001Z" fill="#008A4A"/>
  <path d="M27.9188 31.687H29.478V30.1307H27.9188V31.687Z" fill="#008A4A"/>
  <path d="M29.4749 31.687H31.0342V30.1307H29.4749V31.687Z" fill="#76B043"/>
  <path d="M31.0369 31.687H32.5962V30.1307H31.0369V31.687Z" fill="#008A4A"/>
  <path d="M29.4749 30.1279H31.0342V28.5716H29.4749V30.1279Z" fill="#008A4A"/>
  <path d="M31.0369 30.1279H32.5962V28.5716H31.0369V30.1279Z" fill="#76B043"/>
  <path d="M31.0369 28.5713H32.5962V27.015H31.0369V28.5713Z" fill="#008A4A"/>
  <path d="M31.0369 27.0127H32.5962V25.4564H31.0369V27.0127Z" fill="#76B043"/>
  <path d="M31.0369 25.4561H32.5962V23.8997H31.0369V25.4561Z" fill="#008A4A"/>
  <path d="M13.8913 30.1279H12.332V31.6842H13.8913V30.1279Z" fill="#008A4A"/>
  <path d="M12.3351 30.1279H10.7759V31.6842H12.3351V30.1279Z" fill="#76B043"/>
  <path d="M10.7756 30.1279H9.21631V31.6842H10.7756V30.1279Z" fill="#008A4A"/>
  <path d="M12.3351 28.5747H10.7759V30.131H12.3351V28.5747Z" fill="#008A4A"/>
  <path d="M10.7756 28.5747H9.21631V30.131H10.7756V28.5747Z" fill="#76B043"/>
  <path d="M10.7756 27.0181H9.21631V28.5744H10.7756V27.0181Z" fill="#008A4A"/>
  <path d="M10.7756 25.4561H9.21631V27.0124H10.7756V25.4561Z" fill="#76B043"/>
  <path d="M10.7756 23.8999H9.21631V25.4562H10.7756V23.8999Z" fill="#008A4A"/>
  <path d="M33.8003 1.1543H33.3745V1.58008H33.8003V1.1543Z" fill="#76B043"/>
  <path d="M34.2231 1.1543H33.7974V1.58008H34.2231V1.1543Z" fill="#76B043"/>
  <path d="M34.6489 1.1543H34.2231V1.58008H34.6489V1.1543Z" fill="#76B043"/>
  <path d="M33.8003 1.58008H33.3745V2.00586H33.8003V1.58008Z" fill="#76B043"/>
  <path d="M34.2231 1.58008H33.7974V2.00586H34.2231V1.58008Z" fill="#76B043"/>
  <path d="M33.8003 2.00586H33.3745V2.43164H33.8003V2.00586Z" fill="#76B043"/>
  <path d="M33.8003 2.43164H33.3745V2.85742H33.8003V2.43164Z" fill="#76B043"/>
  <path d="M34.2231 2.43164H33.7974V2.85742H34.2231V2.43164Z" fill="#76B043"/>
  <path d="M34.6489 2.43164H34.2231V2.85742H34.6489V2.43164Z" fill="#76B043"/>
  <path d="M33.8003 2.85449H33.3745V3.28027H33.8003V2.85449Z" fill="#76B043"/>
  <path d="M34.2231 2.85449H33.7974V3.28027H34.2231V2.85449Z" fill="#76B043"/>
  <path d="M33.8003 3.28027H33.3745V3.70606H33.8003V3.28027Z" fill="#76B043"/>
  <path d="M33.8003 3.70605H33.3745V4.13184H33.8003V3.70605Z" fill="#76B043"/>
  <path d="M34.2231 3.70605H33.7974V4.13184H34.2231V3.70605Z" fill="#76B043"/>
  <path d="M34.6489 3.70605H34.2231V4.13184H34.6489V3.70605Z" fill="#76B043"/>
  <path d="M33.8003 4.13184H33.3745V4.55762H33.8003V4.13184Z" fill="#76B043"/>
  <path d="M34.2231 4.13184H33.7974V4.55762H34.2231V4.13184Z" fill="#76B043"/>
  <path d="M33.8003 4.55713H33.3745V4.98291H33.8003V4.55713Z" fill="#76B043"/>
  <path d="M33.8003 4.98047H33.3745V5.40625H33.8003V4.98047Z" fill="#76B043"/>
  <path d="M34.2231 4.98047H33.7974V5.40625H34.2231V4.98047Z" fill="#76B043"/>
  <path d="M34.6489 4.98047H34.2231V5.40625H34.6489V4.98047Z" fill="#76B043"/>
  <path d="M33.8003 5.40625H33.3745V5.83203H33.8003V5.40625Z" fill="#76B043"/>
  <path d="M34.2231 5.40625H33.7974V5.83203H34.2231V5.40625Z" fill="#76B043"/>
  <path d="M33.8003 5.83154H33.3745V6.25732H33.8003V5.83154Z" fill="#76B043"/>
  <path d="M33.8003 6.25781H33.3745V6.6836H33.8003V6.25781Z" fill="#76B043"/>
  <path d="M34.2231 6.25781H33.7974V6.6836H34.2231V6.25781Z" fill="#76B043"/>
  <path d="M34.6489 6.25781H34.2231V6.6836H34.6489V6.25781Z" fill="#76B043"/>
  <path d="M33.8003 6.68359H33.3745V7.10937H33.8003V6.68359Z" fill="#76B043"/>
  <path d="M33.8003 7.10645H33.3745V7.53223H33.8003V7.10645Z" fill="#76B043"/>
  <path d="M35.0747 1.1543H34.6489V1.58008H35.0747V1.1543Z" fill="#76B043"/>
  <path d="M35.5005 1.1543H35.0747V1.58008H35.5005V1.1543Z" fill="#76B043"/>
  <path d="M35.9263 1.1543H35.5005V1.58008H35.9263V1.1543Z" fill="#76B043"/>
  <path d="M35.0747 1.58008H34.6489V2.00586H35.0747V1.58008Z" fill="#76B043"/>
  <path d="M35.5005 1.58008H35.0747V2.00586H35.5005V1.58008Z" fill="#76B043"/>
  <path d="M35.0747 2.00586H34.6489V2.43164H35.0747V2.00586Z" fill="#76B043"/>
  <path d="M36.3491 1.1543H35.9233V1.58008H36.3491V1.1543Z" fill="#76B043"/>
  <path d="M36.7749 1.1543H36.3491V1.58008H36.7749V1.1543Z" fill="#76B043"/>
  <path d="M37.2007 1.1543H36.7749V1.58008H37.2007V1.1543Z" fill="#76B043"/>
  <path d="M36.3491 1.58008H35.9233V2.00586H36.3491V1.58008Z" fill="#76B043"/>
  <path d="M36.7749 1.58008H36.3491V2.00586H36.7749V1.58008Z" fill="#76B043"/>
  <path d="M36.3491 2.00586H35.9233V2.43164H36.3491V2.00586Z" fill="#76B043"/>
  <path d="M35.9263 2.43164H35.5005V2.85742H35.9263V2.43164Z" fill="#76B043"/>
  <path d="M35.5005 2.85449H35.0747V3.28027H35.5005V2.85449Z" fill="#76B043"/>
  <path d="M35.0747 3.28027H34.6489V3.70606H35.0747V3.28027Z" fill="#76B043"/>
  <path d="M37.6265 1.1543H37.2007V1.58008H37.6265V1.1543Z" fill="#76B043"/>
  <path d="M38.0522 1.1543H37.6265V1.58008H38.0522V1.1543Z" fill="#76B043"/>
  <path d="M38.4751 1.1543H38.0493V1.58008H38.4751V1.1543Z" fill="#76B043"/>
  <path d="M37.6265 1.58008H37.2007V2.00586H37.6265V1.58008Z" fill="#76B043"/>
  <path d="M38.0522 1.58008H37.6265V2.00586H38.0522V1.58008Z" fill="#76B043"/>
  <path d="M37.6265 2.00586H37.2007V2.43164H37.6265V2.00586Z" fill="#76B043"/>
  <path d="M37.2007 2.43164H36.7749V2.85742H37.2007V2.43164Z" fill="#76B043"/>
  <path d="M36.7749 2.85449H36.3491V3.28027H36.7749V2.85449Z" fill="#76B043"/>
  <path d="M36.3491 3.28027H35.9233V3.70606H36.3491V3.28027Z" fill="#76B043"/>
  <path d="M35.9263 3.70605H35.5005V4.13184H35.9263V3.70605Z" fill="#76B043"/>
  <path d="M35.5005 4.13184H35.0747V4.55762H35.5005V4.13184Z" fill="#76B043"/>
  <path d="M35.0747 4.55713H34.6489V4.98291H35.0747V4.55713Z" fill="#76B043"/>
  <path d="M38.9009 1.1543H38.4751V1.58008H38.9009V1.1543Z" fill="#76B043"/>
  <path d="M39.3267 1.1543H38.9009V1.58008H39.3267V1.1543Z" fill="#76B043"/>
  <path d="M39.7524 1.1543H39.3267V1.58008H39.7524V1.1543Z" fill="#76B043"/>
  <path d="M38.9009 1.58008H38.4751V2.00586H38.9009V1.58008Z" fill="#76B043"/>
  <path d="M38.9009 2.00586H38.4751V2.43164H38.9009V2.00586Z" fill="#76B043"/>
  <path d="M39.3237 7.53516H39.7495V7.10937H39.3237V7.53516Z" fill="#76B043"/>
  <path d="M38.9009 7.53516H39.3267V7.10937H38.9009V7.53516Z" fill="#76B043"/>
  <path d="M38.4751 7.53516H38.9009V7.10937H38.4751V7.53516Z" fill="#76B043"/>
  <path d="M39.3237 7.10645H39.7495V6.68066H39.3237V7.10645Z" fill="#76B043"/>
  <path d="M38.9009 7.10645H39.3267V6.68066H38.9009V7.10645Z" fill="#76B043"/>
  <path d="M39.3237 6.68066H39.7495V6.25488H39.3237V6.68066Z" fill="#76B043"/>
  <path d="M39.3237 6.25781H39.7495V5.83203H39.3237V6.25781Z" fill="#76B043"/>
  <path d="M38.9009 6.25781H39.3267V5.83203H38.9009V6.25781Z" fill="#76B043"/>
  <path d="M38.4751 6.25781H38.9009V5.83203H38.4751V6.25781Z" fill="#76B043"/>
  <path d="M39.3237 5.83203H39.7495V5.40625H39.3237V5.83203Z" fill="#76B043"/>
  <path d="M38.9009 5.83203H39.3267V5.40625H38.9009V5.83203Z" fill="#76B043"/>
  <path d="M39.3237 5.40918H39.7495V4.9834H39.3237V5.40918Z" fill="#76B043"/>
  <path d="M39.3237 4.98047H39.7495V4.55469H39.3237V4.98047Z" fill="#76B043"/>
  <path d="M38.9009 4.98047H39.3267V4.55469H38.9009V4.98047Z" fill="#76B043"/>
  <path d="M38.4751 4.98047H38.9009V4.55469H38.4751V4.98047Z" fill="#76B043"/>
  <path d="M38.0493 5.40918H38.4751V4.9834H38.0493V5.40918Z" fill="#76B043"/>
  <path d="M37.6231 5.83203H38.0488V5.40625H37.6231V5.83203Z" fill="#76B043"/>
  <path d="M37.1977 6.25781H37.6235V5.83203H37.1977V6.25781Z" fill="#76B043"/>
  <path d="M39.3237 4.55469H39.7495V4.12891H39.3237V4.55469Z" fill="#76B043"/>
  <path d="M38.9009 4.55469H39.3267V4.12891H38.9009V4.55469Z" fill="#76B043"/>
  <path d="M39.3237 4.13184H39.7495V3.70606H39.3237V4.13184Z" fill="#76B043"/>
  <path d="M39.3232 3.70605H39.749V3.28027H39.3232V3.70605Z" fill="#76B043"/>
  <path d="M38.9004 3.70605H39.3262V3.28027H38.9004V3.70605Z" fill="#76B043"/>
  <path d="M38.4751 3.70605H38.9009V3.28027H38.4751V3.70605Z" fill="#76B043"/>
  <path d="M38.0488 4.13184H38.4746V3.70606H38.0488V4.13184Z" fill="#76B043"/>
  <path d="M37.6235 4.5542H38.0493V4.12842H37.6235V4.5542Z" fill="#76B043"/>
  <path d="M37.1977 4.98047H37.6235V4.55469H37.1977V4.98047Z" fill="#76B043"/>
  <path d="M36.7744 5.40918H37.2002V4.9834H36.7744V5.40918Z" fill="#76B043"/>
  <path d="M36.3491 5.83203H36.7749V5.40625H36.3491V5.83203Z" fill="#76B043"/>
  <path d="M35.9233 6.25781H36.3491V5.83203H35.9233V6.25781Z" fill="#76B043"/>
  <path d="M39.3232 3.2832H39.749V2.85742H39.3232V3.2832Z" fill="#76B043"/>
  <path d="M38.9004 3.2832H39.3262V2.85742H38.9004V3.2832Z" fill="#76B043"/>
  <path d="M39.3232 2.85449H39.749V2.42871H39.3232V2.85449Z" fill="#76B043"/>
  <path d="M39.3237 2.42822H39.7495V2.00244H39.3237V2.42822Z" fill="#76B043"/>
  <path d="M38.9009 2.42822H39.3267V2.00244H38.9009V2.42822Z" fill="#76B043"/>
  <path d="M38.4751 2.42822H38.9009V2.00244H38.4751V2.42822Z" fill="#76B043"/>
  <path d="M38.0493 2.85449H38.4751V2.42871H38.0493V2.85449Z" fill="#76B043"/>
  <path d="M37.6235 3.2832H38.0493V2.85742H37.6235V3.2832Z" fill="#76B043"/>
  <path d="M37.1977 3.70605H37.6235V3.28027H37.1977V3.70605Z" fill="#76B043"/>
  <path d="M36.7749 4.13184H37.2007V3.70606H36.7749V4.13184Z" fill="#76B043"/>
  <path d="M36.3491 4.55469H36.7749V4.12891H36.3491V4.55469Z" fill="#76B043"/>
  <path d="M35.9233 4.98047H36.3491V4.55469H35.9233V4.98047Z" fill="#76B043"/>
  <path d="M35.4976 5.40918H35.9233V4.9834H35.4976V5.40918Z" fill="#76B043"/>
  <path d="M35.0718 5.83203H35.4976V5.40625H35.0718V5.83203Z" fill="#76B043"/>
  <path d="M34.6489 6.25781H35.0747V5.83203H34.6489V6.25781Z" fill="#76B043"/>
  <path d="M39.3237 2.00586H39.7495V1.58008H39.3237V2.00586Z" fill="#76B043"/>
  <path d="M39.3237 1.58008H39.7495V1.1543H39.3237V1.58008Z" fill="#76B043"/>
  <path d="M38.0493 7.53516H38.4751V7.10937H38.0493V7.53516Z" fill="#76B043"/>
  <path d="M37.6231 7.53516H38.0488V7.10937H37.6231V7.53516Z" fill="#76B043"/>
  <path d="M37.1977 7.53516H37.6235V7.10937H37.1977V7.53516Z" fill="#76B043"/>
  <path d="M38.0493 7.10645H38.4751V6.68066H38.0493V7.10645Z" fill="#76B043"/>
  <path d="M37.6231 7.10645H38.0488V6.68066H37.6231V7.10645Z" fill="#76B043"/>
  <path d="M38.0493 6.68066H38.4751V6.25488H38.0493V6.68066Z" fill="#76B043"/>
  <path d="M36.7749 7.53516H37.2007V7.10937H36.7749V7.53516Z" fill="#76B043"/>
  <path d="M36.3486 7.53516H36.7744V7.10937H36.3486V7.53516Z" fill="#76B043"/>
  <path d="M35.9233 7.53516H36.3491V7.10937H35.9233V7.53516Z" fill="#76B043"/>
  <path d="M36.7749 7.10645H37.2007V6.68066H36.7749V7.10645Z" fill="#76B043"/>
  <path d="M36.3486 7.10645H36.7744V6.68066H36.3486V7.10645Z" fill="#76B043"/>
  <path d="M36.7749 6.68066H37.2007V6.25488H36.7749V6.68066Z" fill="#76B043"/>
  <path d="M35.4976 7.53516H35.9233V7.10937H35.4976V7.53516Z" fill="#76B043"/>
  <path d="M35.0718 7.53516H35.4976V7.10937H35.0718V7.53516Z" fill="#76B043"/>
  <path d="M34.6489 7.53516H35.0747V7.10937H34.6489V7.53516Z" fill="#76B043"/>
  <path d="M35.4976 7.10645H35.9233V6.68066H35.4976V7.10645Z" fill="#76B043"/>
  <path d="M35.0718 7.10645H35.4976V6.68066H35.0718V7.10645Z" fill="#76B043"/>
  <path d="M35.4976 6.68066H35.9233V6.25488H35.4976V6.68066Z" fill="#76B043"/>
  <path d="M34.2231 7.53516H34.6489V7.10937H34.2231V7.53516Z" fill="#76B043"/>
  <path d="M33.8003 7.53516H34.2261V7.10937H33.8003V7.53516Z" fill="#76B043"/>
  <path d="M33.3716 7.53516H33.7974V7.10937H33.3716V7.53516Z" fill="#76B043"/>
  <path d="M34.2231 7.10645H34.6489V6.68066H34.2231V7.10645Z" fill="#76B043"/>
  <path d="M34.2231 6.68066H34.6489V6.25488H34.2231V6.68066Z" fill="#76B043"/>
  <path d="M33.8003 32.4683H33.3745V32.894H33.8003V32.4683Z" fill="#76B043"/>
  <path d="M34.2231 32.4683H33.7974V32.894H34.2231V32.4683Z" fill="#76B043"/>
  <path d="M34.6489 32.4683H34.2231V32.894H34.6489V32.4683Z" fill="#76B043"/>
  <path d="M33.8003 32.894H33.3745V33.3198H33.8003V32.894Z" fill="#76B043"/>
  <path d="M34.2231 32.894H33.7974V33.3198H34.2231V32.894Z" fill="#76B043"/>
  <path d="M33.8003 33.3193H33.3745V33.7451H33.8003V33.3193Z" fill="#76B043"/>
  <path d="M33.8003 33.7456H33.3745V34.1714H33.8003V33.7456Z" fill="#76B043"/>
  <path d="M34.2231 33.7456H33.7974V34.1714H34.2231V33.7456Z" fill="#76B043"/>
  <path d="M34.6489 33.7456H34.2231V34.1714H34.6489V33.7456Z" fill="#76B043"/>
  <path d="M33.8003 34.1709H33.3745V34.5967H33.8003V34.1709Z" fill="#76B043"/>
  <path d="M34.2231 34.1709H33.7974V34.5967H34.2231V34.1709Z" fill="#76B043"/>
  <path d="M33.8003 34.5942H33.3745V35.02H33.8003V34.5942Z" fill="#76B043"/>
  <path d="M33.8003 35.02H33.3745V35.4458H33.8003V35.02Z" fill="#76B043"/>
  <path d="M34.2231 35.02H33.7974V35.4458H34.2231V35.02Z" fill="#76B043"/>
  <path d="M34.6489 35.02H34.2231V35.4458H34.6489V35.02Z" fill="#76B043"/>
  <path d="M33.8003 35.4453H33.3745V35.8711H33.8003V35.4453Z" fill="#76B043"/>
  <path d="M34.2231 35.4453H33.7974V35.8711H34.2231V35.4453Z" fill="#76B043"/>
  <path d="M33.8003 35.8716H33.3745V36.2974H33.8003V35.8716Z" fill="#76B043"/>
  <path d="M33.8003 36.2974H33.3745V36.7231H33.8003V36.2974Z" fill="#76B043"/>
  <path d="M34.2231 36.2974H33.7974V36.7231H34.2231V36.2974Z" fill="#76B043"/>
  <path d="M34.6489 36.2974H34.2231V36.7231H34.6489V36.2974Z" fill="#76B043"/>
  <path d="M33.8003 36.7197H33.3745V37.1455H33.8003V36.7197Z" fill="#76B043"/>
  <path d="M34.2231 36.7197H33.7974V37.1455H34.2231V36.7197Z" fill="#76B043"/>
  <path d="M33.8003 37.146H33.3745V37.5718H33.8003V37.146Z" fill="#76B043"/>
  <path d="M33.8003 37.5718H33.3745V37.9976H33.8003V37.5718Z" fill="#76B043"/>
  <path d="M34.2231 37.5718H33.7974V37.9976H34.2231V37.5718Z" fill="#76B043"/>
  <path d="M34.6489 37.5718H34.2231V37.9976H34.6489V37.5718Z" fill="#76B043"/>
  <path d="M33.8003 37.9976H33.3745V38.4233H33.8003V37.9976Z" fill="#76B043"/>
  <path d="M33.8003 38.4204H33.3745V38.8462H33.8003V38.4204Z" fill="#76B043"/>
  <path d="M35.0747 32.4683H34.6489V32.894H35.0747V32.4683Z" fill="#76B043"/>
  <path d="M35.5005 32.4683H35.0747V32.894H35.5005V32.4683Z" fill="#76B043"/>
  <path d="M35.9263 32.4683H35.5005V32.894H35.9263V32.4683Z" fill="#76B043"/>
  <path d="M35.0747 32.894H34.6489V33.3198H35.0747V32.894Z" fill="#76B043"/>
  <path d="M35.5005 32.894H35.0747V33.3198H35.5005V32.894Z" fill="#76B043"/>
  <path d="M35.0747 33.3193H34.6489V33.7451H35.0747V33.3193Z" fill="#76B043"/>
  <path d="M36.3491 32.4683H35.9233V32.894H36.3491V32.4683Z" fill="#76B043"/>
  <path d="M36.7749 32.4683H36.3491V32.894H36.7749V32.4683Z" fill="#76B043"/>
  <path d="M37.2007 32.4683H36.7749V32.894H37.2007V32.4683Z" fill="#76B043"/>
  <path d="M36.3491 32.894H35.9233V33.3198H36.3491V32.894Z" fill="#76B043"/>
  <path d="M36.7749 32.894H36.3491V33.3198H36.7749V32.894Z" fill="#76B043"/>
  <path d="M36.3491 33.3193H35.9233V33.7451H36.3491V33.3193Z" fill="#76B043"/>
  <path d="M35.9263 33.7456H35.5005V34.1714H35.9263V33.7456Z" fill="#76B043"/>
  <path d="M35.5005 34.1709H35.0747V34.5967H35.5005V34.1709Z" fill="#76B043"/>
  <path d="M35.0747 34.5942H34.6489V35.02H35.0747V34.5942Z" fill="#76B043"/>
  <path d="M37.6265 32.4683H37.2007V32.894H37.6265V32.4683Z" fill="#76B043"/>
  <path d="M38.0522 32.4683H37.6265V32.894H38.0522V32.4683Z" fill="#76B043"/>
  <path d="M38.4751 32.4683H38.0493V32.894H38.4751V32.4683Z" fill="#76B043"/>
  <path d="M37.6265 32.894H37.2007V33.3198H37.6265V32.894Z" fill="#76B043"/>
  <path d="M38.0522 32.894H37.6265V33.3198H38.0522V32.894Z" fill="#76B043"/>
  <path d="M37.6265 33.3193H37.2007V33.7451H37.6265V33.3193Z" fill="#76B043"/>
  <path d="M37.2007 33.7456H36.7749V34.1714H37.2007V33.7456Z" fill="#76B043"/>
  <path d="M36.7749 34.1709H36.3491V34.5967H36.7749V34.1709Z" fill="#76B043"/>
  <path d="M36.3491 34.5942H35.9233V35.02H36.3491V34.5942Z" fill="#76B043"/>
  <path d="M35.9263 35.02H35.5005V35.4458H35.9263V35.02Z" fill="#76B043"/>
  <path d="M35.5005 35.4453H35.0747V35.8711H35.5005V35.4453Z" fill="#76B043"/>
  <path d="M35.0747 35.8716H34.6489V36.2974H35.0747V35.8716Z" fill="#76B043"/>
  <path d="M38.9009 32.4683H38.4751V32.894H38.9009V32.4683Z" fill="#76B043"/>
  <path d="M39.3267 32.4683H38.9009V32.894H39.3267V32.4683Z" fill="#76B043"/>
  <path d="M39.7524 32.4683H39.3267V32.894H39.7524V32.4683Z" fill="#76B043"/>
  <path d="M38.9009 32.894H38.4751V33.3198H38.9009V32.894Z" fill="#76B043"/>
  <path d="M38.9009 33.3193H38.4751V33.7451H38.9009V33.3193Z" fill="#76B043"/>
  <path d="M39.3232 38.8486H39.749V38.4229H39.3232V38.8486Z" fill="#76B043"/>
  <path d="M38.9004 38.8486H39.3262V38.4229H38.9004V38.8486Z" fill="#76B043"/>
  <path d="M38.4751 38.8486H38.9009V38.4229H38.4751V38.8486Z" fill="#76B043"/>
  <path d="M39.3232 38.4199H39.749V37.9941H39.3232V38.4199Z" fill="#76B043"/>
  <path d="M38.9004 38.4199H39.3262V37.9941H38.9004V38.4199Z" fill="#76B043"/>
  <path d="M39.3232 37.9971H39.749V37.5713H39.3232V37.9971Z" fill="#76B043"/>
  <path d="M39.3237 37.5718H39.7495V37.146H39.3237V37.5718Z" fill="#76B043"/>
  <path d="M38.9009 37.5718H39.3267V37.146H38.9009V37.5718Z" fill="#76B043"/>
  <path d="M38.4751 37.5718H38.9009V37.146H38.4751V37.5718Z" fill="#76B043"/>
  <path d="M39.3237 37.1455H39.7495V36.7197H39.3237V37.1455Z" fill="#76B043"/>
  <path d="M38.9009 37.1455H39.3267V36.7197H38.9009V37.1455Z" fill="#76B043"/>
  <path d="M39.3237 36.7202H39.7495V36.2944H39.3237V36.7202Z" fill="#76B043"/>
  <path d="M39.3237 36.2944H39.7495V35.8686H39.3237V36.2944Z" fill="#76B043"/>
  <path d="M38.9009 36.2944H39.3267V35.8686H38.9009V36.2944Z" fill="#76B043"/>
  <path d="M38.4751 36.2944H38.9009V35.8686H38.4751V36.2944Z" fill="#76B043"/>
  <path d="M38.0493 36.7202H38.4751V36.2944H38.0493V36.7202Z" fill="#76B043"/>
  <path d="M37.6235 37.146H38.0493V36.7202H37.6235V37.146Z" fill="#76B043"/>
  <path d="M37.1977 37.5718H37.6235V37.146H37.1977V37.5718Z" fill="#76B043"/>
  <path d="M39.3237 35.8716H39.7495V35.4458H39.3237V35.8716Z" fill="#76B043"/>
  <path d="M38.9009 35.8716H39.3267V35.4458H38.9009V35.8716Z" fill="#76B043"/>
  <path d="M39.3237 35.4458H39.7495V35.02H39.3237V35.4458Z" fill="#76B043"/>
  <path d="M39.3237 35.02H39.7495V34.5942H39.3237V35.02Z" fill="#76B043"/>
  <path d="M38.9009 35.02H39.3267V34.5942H38.9009V35.02Z" fill="#76B043"/>
  <path d="M38.4751 35.02H38.9009V34.5942H38.4751V35.02Z" fill="#76B043"/>
  <path d="M38.0493 35.4453H38.4751V35.0195H38.0493V35.4453Z" fill="#76B043"/>
  <path d="M37.6235 35.8716H38.0493V35.4458H37.6235V35.8716Z" fill="#76B043"/>
  <path d="M37.1977 36.2944H37.6235V35.8686H37.1977V36.2944Z" fill="#76B043"/>
  <path d="M36.7749 36.7197H37.2007V36.2939H36.7749V36.7197Z" fill="#76B043"/>
  <path d="M36.3486 37.1455H36.7744V36.7197H36.3486V37.1455Z" fill="#76B043"/>
  <path d="M35.9233 37.5718H36.3491V37.146H35.9233V37.5718Z" fill="#76B043"/>
  <path d="M39.3237 34.5938H39.7495V34.168H39.3237V34.5938Z" fill="#76B043"/>
  <path d="M38.9009 34.5938H39.3267V34.168H38.9009V34.5938Z" fill="#76B043"/>
  <path d="M39.3237 34.1685H39.7495V33.7427H39.3237V34.1685Z" fill="#76B043"/>
  <path d="M39.3232 33.7456H39.749V33.3198H39.3232V33.7456Z" fill="#76B043"/>
  <path d="M38.9004 33.7456H39.3262V33.3198H38.9004V33.7456Z" fill="#76B043"/>
  <path d="M38.4751 33.7456H38.9009V33.3198H38.4751V33.7456Z" fill="#76B043"/>
  <path d="M38.0488 34.1689H38.4746V33.7432H38.0488V34.1689Z" fill="#76B043"/>
  <path d="M37.6235 34.5942H38.0493V34.1685H37.6235V34.5942Z" fill="#76B043"/>
  <path d="M37.1977 35.0205H37.6235V34.5947H37.1977V35.0205Z" fill="#76B043"/>
  <path d="M36.7744 35.4458H37.2002V35.02H36.7744V35.4458Z" fill="#76B043"/>
  <path d="M36.3491 35.8716H36.7749V35.4458H36.3491V35.8716Z" fill="#76B043"/>
  <path d="M35.9233 36.2944H36.3491V35.8686H35.9233V36.2944Z" fill="#76B043"/>
  <path d="M35.4971 36.7202H35.9229V36.2944H35.4971V36.7202Z" fill="#76B043"/>
  <path d="M35.0718 37.146H35.4976V36.7202H35.0718V37.146Z" fill="#76B043"/>
  <path d="M34.6489 37.5723H35.0747V37.1465H34.6489V37.5723Z" fill="#76B043"/>
  <path d="M39.3232 33.3198H39.749V32.894H39.3232V33.3198Z" fill="#76B043"/>
  <path d="M39.3232 32.897H39.749V32.4712H39.3232V32.897Z" fill="#76B043"/>
  <path d="M38.0488 38.8486H38.4746V38.4229H38.0488V38.8486Z" fill="#76B043"/>
  <path d="M37.6235 38.8486H38.0493V38.4229H37.6235V38.8486Z" fill="#76B043"/>
  <path d="M37.1977 38.8486H37.6235V38.4229H37.1977V38.8486Z" fill="#76B043"/>
  <path d="M38.0488 38.4199H38.4746V37.9941H38.0488V38.4199Z" fill="#76B043"/>
  <path d="M37.6235 38.4199H38.0493V37.9941H37.6235V38.4199Z" fill="#76B043"/>
  <path d="M38.0488 37.9971H38.4746V37.5713H38.0488V37.9971Z" fill="#76B043"/>
  <path d="M36.7744 38.8486H37.2002V38.4229H36.7744V38.8486Z" fill="#76B043"/>
  <path d="M36.3491 38.8486H36.7749V38.4229H36.3491V38.8486Z" fill="#76B043"/>
  <path d="M35.9233 38.8486H36.3491V38.4229H35.9233V38.8486Z" fill="#76B043"/>
  <path d="M36.7744 38.4199H37.2002V37.9941H36.7744V38.4199Z" fill="#76B043"/>
  <path d="M36.3491 38.4199H36.7749V37.9941H36.3491V38.4199Z" fill="#76B043"/>
  <path d="M36.7744 37.9971H37.2002V37.5713H36.7744V37.9971Z" fill="#76B043"/>
  <path d="M35.4971 38.8486H35.9229V38.4229H35.4971V38.8486Z" fill="#76B043"/>
  <path d="M35.0718 38.8486H35.4976V38.4229H35.0718V38.8486Z" fill="#76B043"/>
  <path d="M34.6489 38.8486H35.0747V38.4229H34.6489V38.8486Z" fill="#76B043"/>
  <path d="M35.4971 38.4199H35.9229V37.9941H35.4971V38.4199Z" fill="#76B043"/>
  <path d="M35.0718 38.4199H35.4976V37.9941H35.0718V38.4199Z" fill="#76B043"/>
  <path d="M35.4971 37.9971H35.9229V37.5713H35.4971V37.9971Z" fill="#76B043"/>
  <path d="M34.2227 38.8486H34.6484V38.4229H34.2227V38.8486Z" fill="#76B043"/>
  <path d="M33.8003 38.8486H34.2261V38.4229H33.8003V38.8486Z" fill="#76B043"/>
  <path d="M33.3711 38.8486H33.7969V38.4229H33.3711V38.8486Z" fill="#76B043"/>
  <path d="M34.2227 38.4199H34.6484V37.9941H34.2227V38.4199Z" fill="#76B043"/>
  <path d="M34.2227 37.9971H34.6484V37.5713H34.2227V37.9971Z" fill="#76B043"/>
  <path d="M2.4834 1.1543H2.05762V1.58008H2.4834V1.1543Z" fill="#76B043"/>
  <path d="M2.90917 1.1543H2.4834V1.58008H2.90917V1.1543Z" fill="#76B043"/>
  <path d="M3.33497 1.1543H2.90918V1.58008H3.33497V1.1543Z" fill="#76B043"/>
  <path d="M2.4834 1.58008H2.05762V2.00586H2.4834V1.58008Z" fill="#76B043"/>
  <path d="M2.90917 1.58008H2.4834V2.00586H2.90917V1.58008Z" fill="#76B043"/>
  <path d="M2.4834 2.00586H2.05762V2.43164H2.4834V2.00586Z" fill="#76B043"/>
  <path d="M2.4834 2.43164H2.05762V2.85742H2.4834V2.43164Z" fill="#76B043"/>
  <path d="M2.90917 2.43164H2.4834V2.85742H2.90917V2.43164Z" fill="#76B043"/>
  <path d="M3.33497 2.43164H2.90918V2.85742H3.33497V2.43164Z" fill="#76B043"/>
  <path d="M2.4834 2.85449H2.05762V3.28027H2.4834V2.85449Z" fill="#76B043"/>
  <path d="M2.90917 2.85449H2.4834V3.28027H2.90917V2.85449Z" fill="#76B043"/>
  <path d="M2.4834 3.28027H2.05762V3.70606H2.4834V3.28027Z" fill="#76B043"/>
  <path d="M2.4834 3.70605H2.05762V4.13184H2.4834V3.70605Z" fill="#76B043"/>
  <path d="M2.90917 3.70605H2.4834V4.13184H2.90917V3.70605Z" fill="#76B043"/>
  <path d="M3.33497 3.70605H2.90918V4.13184H3.33497V3.70605Z" fill="#76B043"/>
  <path d="M2.4834 4.13184H2.05762V4.55762H2.4834V4.13184Z" fill="#76B043"/>
  <path d="M2.90917 4.13184H2.4834V4.55762H2.90917V4.13184Z" fill="#76B043"/>
  <path d="M2.4834 4.55713H2.05762V4.98291H2.4834V4.55713Z" fill="#76B043"/>
  <path d="M2.4834 4.98047H2.05762V5.40625H2.4834V4.98047Z" fill="#76B043"/>
  <path d="M2.90917 4.98047H2.4834V5.40625H2.90917V4.98047Z" fill="#76B043"/>
  <path d="M3.33497 4.98047H2.90918V5.40625H3.33497V4.98047Z" fill="#76B043"/>
  <path d="M2.4834 5.40625H2.05762V5.83203H2.4834V5.40625Z" fill="#76B043"/>
  <path d="M2.90917 5.40625H2.4834V5.83203H2.90917V5.40625Z" fill="#76B043"/>
  <path d="M2.4834 5.83154H2.05762V6.25732H2.4834V5.83154Z" fill="#76B043"/>
  <path d="M2.4834 6.25781H2.05762V6.6836H2.4834V6.25781Z" fill="#76B043"/>
  <path d="M2.90917 6.25781H2.4834V6.6836H2.90917V6.25781Z" fill="#76B043"/>
  <path d="M3.33497 6.25781H2.90918V6.6836H3.33497V6.25781Z" fill="#76B043"/>
  <path d="M2.4834 6.68359H2.05762V7.10937H2.4834V6.68359Z" fill="#76B043"/>
  <path d="M2.4834 7.10645H2.05762V7.53223H2.4834V7.10645Z" fill="#76B043"/>
  <path d="M3.76074 1.1543H3.33496V1.58008H3.76074V1.1543Z" fill="#76B043"/>
  <path d="M4.18653 1.1543H3.76074V1.58008H4.18653V1.1543Z" fill="#76B043"/>
  <path d="M4.60938 1.1543H4.18359V1.58008H4.60938V1.1543Z" fill="#76B043"/>
  <path d="M3.76074 1.58008H3.33496V2.00586H3.76074V1.58008Z" fill="#76B043"/>
  <path d="M4.18653 1.58008H3.76074V2.00586H4.18653V1.58008Z" fill="#76B043"/>
  <path d="M3.76074 2.00586H3.33496V2.43164H3.76074V2.00586Z" fill="#76B043"/>
  <path d="M5.03516 1.1543H4.60938V1.58008H5.03516V1.1543Z" fill="#76B043"/>
  <path d="M5.46093 1.1543H5.03516V1.58008H5.46093V1.1543Z" fill="#76B043"/>
  <path d="M5.88672 1.1543H5.46094V1.58008H5.88672V1.1543Z" fill="#76B043"/>
  <path d="M5.03516 1.58008H4.60938V2.00586H5.03516V1.58008Z" fill="#76B043"/>
  <path d="M5.46093 1.58008H5.03516V2.00586H5.46093V1.58008Z" fill="#76B043"/>
  <path d="M5.03516 2.00586H4.60938V2.43164H5.03516V2.00586Z" fill="#76B043"/>
  <path d="M4.60938 2.43164H4.18359V2.85742H4.60938V2.43164Z" fill="#76B043"/>
  <path d="M4.18653 2.85449H3.76074V3.28027H4.18653V2.85449Z" fill="#76B043"/>
  <path d="M3.76074 3.28027H3.33496V3.70606H3.76074V3.28027Z" fill="#76B043"/>
  <path d="M6.3125 1.1543H5.88672V1.58008H6.3125V1.1543Z" fill="#76B043"/>
  <path d="M6.73535 1.1543H6.30957V1.58008H6.73535V1.1543Z" fill="#76B043"/>
  <path d="M7.16114 1.1543H6.73535V1.58008H7.16114V1.1543Z" fill="#76B043"/>
  <path d="M6.3125 1.58008H5.88672V2.00586H6.3125V1.58008Z" fill="#76B043"/>
  <path d="M6.73535 1.58008H6.30957V2.00586H6.73535V1.58008Z" fill="#76B043"/>
  <path d="M6.3125 2.00586H5.88672V2.43164H6.3125V2.00586Z" fill="#76B043"/>
  <path d="M5.88672 2.43164H5.46094V2.85742H5.88672V2.43164Z" fill="#76B043"/>
  <path d="M5.46093 2.85449H5.03516V3.28027H5.46093V2.85449Z" fill="#76B043"/>
  <path d="M5.03516 3.28027H4.60938V3.70606H5.03516V3.28027Z" fill="#76B043"/>
  <path d="M4.60938 3.70605H4.18359V4.13184H4.60938V3.70605Z" fill="#76B043"/>
  <path d="M4.18653 4.13184H3.76074V4.55762H4.18653V4.13184Z" fill="#76B043"/>
  <path d="M3.76074 4.55713H3.33496V4.98291H3.76074V4.55713Z" fill="#76B043"/>
  <path d="M7.58691 1.1543H7.16113V1.58008H7.58691V1.1543Z" fill="#76B043"/>
  <path d="M8.0127 1.1543H7.58691V1.58008H8.0127V1.1543Z" fill="#76B043"/>
  <path d="M8.43799 1.1543H8.01221V1.58008H8.43799V1.1543Z" fill="#76B043"/>
  <path d="M7.58691 1.58008H7.16113V2.00586H7.58691V1.58008Z" fill="#76B043"/>
  <path d="M7.58691 2.00586H7.16113V2.43164H7.58691V2.00586Z" fill="#76B043"/>
  <path d="M8.00976 7.53516H8.43555V7.10937H8.00976V7.53516Z" fill="#76B043"/>
  <path d="M7.58398 7.53516H8.00977V7.10937H7.58398V7.53516Z" fill="#76B043"/>
  <path d="M7.16114 7.53516H7.58691V7.10937H7.16114V7.53516Z" fill="#76B043"/>
  <path d="M8.00976 7.10645H8.43555V6.68066H8.00976V7.10645Z" fill="#76B043"/>
  <path d="M7.58398 7.10645H8.00977V6.68066H7.58398V7.10645Z" fill="#76B043"/>
  <path d="M8.00976 6.68066H8.43555V6.25488H8.00976V6.68066Z" fill="#76B043"/>
  <path d="M8.00976 6.25781H8.43555V5.83203H8.00976V6.25781Z" fill="#76B043"/>
  <path d="M7.58398 6.25781H8.00977V5.83203H7.58398V6.25781Z" fill="#76B043"/>
  <path d="M7.16114 6.25781H7.58691V5.83203H7.16114V6.25781Z" fill="#76B043"/>
  <path d="M8.00976 5.83203H8.43555V5.40625H8.00976V5.83203Z" fill="#76B043"/>
  <path d="M7.58398 5.83203H8.00977V5.40625H7.58398V5.83203Z" fill="#76B043"/>
  <path d="M8.00976 5.40918H8.43555V4.9834H8.00976V5.40918Z" fill="#76B043"/>
  <path d="M8.00976 4.97998H8.43555V4.5542H8.00976V4.97998Z" fill="#76B043"/>
  <path d="M7.58398 4.97998H8.00977V4.5542H7.58398V4.97998Z" fill="#76B043"/>
  <path d="M7.16114 4.97998H7.58691V4.5542H7.16114V4.97998Z" fill="#76B043"/>
  <path d="M6.73535 5.40869H7.16113V4.98291H6.73535V5.40869Z" fill="#76B043"/>
  <path d="M6.3125 5.83154H6.73828V5.40576H6.3125V5.83154Z" fill="#76B043"/>
  <path d="M5.88379 6.25732H6.30957V5.83154H5.88379V6.25732Z" fill="#76B043"/>
  <path d="M8.00976 4.5542H8.43555V4.12842H8.00976V4.5542Z" fill="#76B043"/>
  <path d="M7.58398 4.5542H8.00977V4.12842H7.58398V4.5542Z" fill="#76B043"/>
  <path d="M8.00976 4.13184H8.43555V3.70606H8.00976V4.13184Z" fill="#76B043"/>
  <path d="M8.00927 3.70605H8.43506V3.28027H8.00927V3.70605Z" fill="#76B043"/>
  <path d="M7.58398 3.70605H8.00977V3.28027H7.58398V3.70605Z" fill="#76B043"/>
  <path d="M7.16114 3.70605H7.58691V3.28027H7.16114V3.70605Z" fill="#76B043"/>
  <path d="M6.73486 4.13184H7.16064V3.70606H6.73486V4.13184Z" fill="#76B043"/>
  <path d="M6.31202 4.55469H6.73779V4.12891H6.31202V4.55469Z" fill="#76B043"/>
  <path d="M5.88331 4.98047H6.30908V4.55469H5.88331V4.98047Z" fill="#76B043"/>
  <path d="M5.45752 5.40918H5.8833V4.9834H5.45752V5.40918Z" fill="#76B043"/>
  <path d="M5.03516 5.83203H5.46094V5.40625H5.03516V5.83203Z" fill="#76B043"/>
  <path d="M4.60888 6.25781H5.03467V5.83203H4.60888V6.25781Z" fill="#76B043"/>
  <path d="M8.00927 3.2832H8.43506V2.85742H8.00927V3.2832Z" fill="#76B043"/>
  <path d="M7.58398 3.2832H8.00977V2.85742H7.58398V3.2832Z" fill="#76B043"/>
  <path d="M8.00927 2.85449H8.43506V2.42871H8.00927V2.85449Z" fill="#76B043"/>
  <path d="M8.00976 2.42822H8.43555V2.00244H8.00976V2.42822Z" fill="#76B043"/>
  <path d="M7.58398 2.42822H8.00977V2.00244H7.58398V2.42822Z" fill="#76B043"/>
  <path d="M7.16114 2.42822H7.58691V2.00244H7.16114V2.42822Z" fill="#76B043"/>
  <path d="M6.73535 2.854H7.16113V2.42822H6.73535V2.854Z" fill="#76B043"/>
  <path d="M6.3125 3.28271H6.73828V2.85693H6.3125V3.28271Z" fill="#76B043"/>
  <path d="M5.88379 3.70557H6.30957V3.27978H5.88379V3.70557Z" fill="#76B043"/>
  <path d="M5.458 4.13184H5.88379V3.70606H5.458V4.13184Z" fill="#76B043"/>
  <path d="M5.03516 4.55469H5.46094V4.12891H5.03516V4.55469Z" fill="#76B043"/>
  <path d="M4.60937 4.97998H5.03516V4.5542H4.60937V4.97998Z" fill="#76B043"/>
  <path d="M4.18652 5.40918H4.6123V4.9834H4.18652V5.40918Z" fill="#76B043"/>
  <path d="M3.75781 5.83154H4.18359V5.40576H3.75781V5.83154Z" fill="#76B043"/>
  <path d="M3.33204 6.25732H3.75781V5.83154H3.33204V6.25732Z" fill="#76B043"/>
  <path d="M8.00976 2.00586H8.43555V1.58008H8.00976V2.00586Z" fill="#76B043"/>
  <path d="M8.00976 1.57959H8.43555V1.15381H8.00976V1.57959Z" fill="#76B043"/>
  <path d="M6.73535 7.53516H7.16113V7.10937H6.73535V7.53516Z" fill="#76B043"/>
  <path d="M6.3125 7.53516H6.73828V7.10937H6.3125V7.53516Z" fill="#76B043"/>
  <path d="M5.88379 7.53516H6.30957V7.10937H5.88379V7.53516Z" fill="#76B043"/>
  <path d="M6.73535 7.10596H7.16113V6.68018H6.73535V7.10596Z" fill="#76B043"/>
  <path d="M6.3125 7.10596H6.73828V6.68018H6.3125V7.10596Z" fill="#76B043"/>
  <path d="M6.73535 6.68066H7.16113V6.25488H6.73535V6.68066Z" fill="#76B043"/>
  <path d="M5.45752 7.53516H5.8833V7.10937H5.45752V7.53516Z" fill="#76B043"/>
  <path d="M5.03516 7.53516H5.46094V7.10937H5.03516V7.53516Z" fill="#76B043"/>
  <path d="M4.60937 7.53516H5.03516V7.10937H4.60937V7.53516Z" fill="#76B043"/>
  <path d="M5.45752 7.10645H5.8833V6.68066H5.45752V7.10645Z" fill="#76B043"/>
  <path d="M5.03516 7.10645H5.46094V6.68066H5.03516V7.10645Z" fill="#76B043"/>
  <path d="M5.45752 6.68066H5.8833V6.25488H5.45752V6.68066Z" fill="#76B043"/>
  <path d="M4.18701 7.53516H4.61279V7.10937H4.18701V7.53516Z" fill="#76B043"/>
  <path d="M3.7583 7.53516H4.18408V7.10937H3.7583V7.53516Z" fill="#76B043"/>
  <path d="M3.33252 7.53516H3.7583V7.10937H3.33252V7.53516Z" fill="#76B043"/>
  <path d="M4.18701 7.10596H4.61279V6.68018H4.18701V7.10596Z" fill="#76B043"/>
  <path d="M3.7583 7.10596H4.18408V6.68018H3.7583V7.10596Z" fill="#76B043"/>
  <path d="M4.18701 6.68066H4.61279V6.25488H4.18701V6.68066Z" fill="#76B043"/>
  <path d="M2.90918 7.53516H3.33496V7.10937H2.90918V7.53516Z" fill="#76B043"/>
  <path d="M2.48389 7.53516H2.90967V7.10937H2.48389V7.53516Z" fill="#76B043"/>
  <path d="M2.06054 7.53516H2.48633V7.10937H2.06054V7.53516Z" fill="#76B043"/>
  <path d="M2.90918 7.10596H3.33496V6.68018H2.90918V7.10596Z" fill="#76B043"/>
  <path d="M2.90918 6.68066H3.33496V6.25488H2.90918V6.68066Z" fill="#76B043"/>
  <path d="M2.4834 32.4683H2.05762V32.894H2.4834V32.4683Z" fill="#76B043"/>
  <path d="M2.90917 32.4683H2.4834V32.894H2.90917V32.4683Z" fill="#76B043"/>
  <path d="M3.33497 32.4683H2.90918V32.894H3.33497V32.4683Z" fill="#76B043"/>
  <path d="M2.4834 32.894H2.05762V33.3198H2.4834V32.894Z" fill="#76B043"/>
  <path d="M2.90917 32.894H2.4834V33.3198H2.90917V32.894Z" fill="#76B043"/>
  <path d="M2.4834 33.3193H2.05762V33.7451H2.4834V33.3193Z" fill="#76B043"/>
  <path d="M2.4834 33.7456H2.05762V34.1714H2.4834V33.7456Z" fill="#76B043"/>
  <path d="M2.90917 33.7456H2.4834V34.1714H2.90917V33.7456Z" fill="#76B043"/>
  <path d="M3.33497 33.7456H2.90918V34.1714H3.33497V33.7456Z" fill="#76B043"/>
  <path d="M2.4834 34.1709H2.05762V34.5967H2.4834V34.1709Z" fill="#76B043"/>
  <path d="M2.90917 34.1709H2.4834V34.5967H2.90917V34.1709Z" fill="#76B043"/>
  <path d="M2.4834 34.5942H2.05762V35.02H2.4834V34.5942Z" fill="#76B043"/>
  <path d="M2.4834 35.02H2.05762V35.4458H2.4834V35.02Z" fill="#76B043"/>
  <path d="M2.90917 35.02H2.4834V35.4458H2.90917V35.02Z" fill="#76B043"/>
  <path d="M3.33497 35.02H2.90918V35.4458H3.33497V35.02Z" fill="#76B043"/>
  <path d="M2.4834 35.4453H2.05762V35.8711H2.4834V35.4453Z" fill="#76B043"/>
  <path d="M2.90917 35.4453H2.4834V35.8711H2.90917V35.4453Z" fill="#76B043"/>
  <path d="M2.4834 35.8716H2.05762V36.2974H2.4834V35.8716Z" fill="#76B043"/>
  <path d="M2.4834 36.2974H2.05762V36.7231H2.4834V36.2974Z" fill="#76B043"/>
  <path d="M2.90917 36.2974H2.4834V36.7231H2.90917V36.2974Z" fill="#76B043"/>
  <path d="M3.33497 36.2974H2.90918V36.7231H3.33497V36.2974Z" fill="#76B043"/>
  <path d="M2.4834 36.7197H2.05762V37.1455H2.4834V36.7197Z" fill="#76B043"/>
  <path d="M2.90917 36.7197H2.4834V37.1455H2.90917V36.7197Z" fill="#76B043"/>
  <path d="M2.4834 37.146H2.05762V37.5718H2.4834V37.146Z" fill="#76B043"/>
  <path d="M2.4834 37.5718H2.05762V37.9976H2.4834V37.5718Z" fill="#76B043"/>
  <path d="M2.90917 37.5718H2.4834V37.9976H2.90917V37.5718Z" fill="#76B043"/>
  <path d="M3.33497 37.5718H2.90918V37.9976H3.33497V37.5718Z" fill="#76B043"/>
  <path d="M2.4834 37.9976H2.05762V38.4233H2.4834V37.9976Z" fill="#76B043"/>
  <path d="M2.4834 38.4204H2.05762V38.8462H2.4834V38.4204Z" fill="#76B043"/>
  <path d="M3.76074 32.4683H3.33496V32.894H3.76074V32.4683Z" fill="#76B043"/>
  <path d="M4.18653 32.4683H3.76074V32.894H4.18653V32.4683Z" fill="#76B043"/>
  <path d="M4.60938 32.4683H4.18359V32.894H4.60938V32.4683Z" fill="#76B043"/>
  <path d="M3.76074 32.894H3.33496V33.3198H3.76074V32.894Z" fill="#76B043"/>
  <path d="M4.18653 32.894H3.76074V33.3198H4.18653V32.894Z" fill="#76B043"/>
  <path d="M3.76074 33.3193H3.33496V33.7451H3.76074V33.3193Z" fill="#76B043"/>
  <path d="M5.03516 32.4683H4.60938V32.894H5.03516V32.4683Z" fill="#76B043"/>
  <path d="M5.46093 32.4683H5.03516V32.894H5.46093V32.4683Z" fill="#76B043"/>
  <path d="M5.88672 32.4683H5.46094V32.894H5.88672V32.4683Z" fill="#76B043"/>
  <path d="M5.03516 32.894H4.60938V33.3198H5.03516V32.894Z" fill="#76B043"/>
  <path d="M5.46093 32.894H5.03516V33.3198H5.46093V32.894Z" fill="#76B043"/>
  <path d="M5.03516 33.3193H4.60938V33.7451H5.03516V33.3193Z" fill="#76B043"/>
  <path d="M4.60938 33.7456H4.18359V34.1714H4.60938V33.7456Z" fill="#76B043"/>
  <path d="M4.18653 34.1709H3.76074V34.5967H4.18653V34.1709Z" fill="#76B043"/>
  <path d="M3.76074 34.5942H3.33496V35.02H3.76074V34.5942Z" fill="#76B043"/>
  <path d="M6.3125 32.4683H5.88672V32.894H6.3125V32.4683Z" fill="#76B043"/>
  <path d="M6.73535 32.4683H6.30957V32.894H6.73535V32.4683Z" fill="#76B043"/>
  <path d="M7.16114 32.4683H6.73535V32.894H7.16114V32.4683Z" fill="#76B043"/>
  <path d="M6.3125 32.894H5.88672V33.3198H6.3125V32.894Z" fill="#76B043"/>
  <path d="M6.73535 32.894H6.30957V33.3198H6.73535V32.894Z" fill="#76B043"/>
  <path d="M6.3125 33.3193H5.88672V33.7451H6.3125V33.3193Z" fill="#76B043"/>
  <path d="M5.88672 33.7456H5.46094V34.1714H5.88672V33.7456Z" fill="#76B043"/>
  <path d="M5.46093 34.1709H5.03516V34.5967H5.46093V34.1709Z" fill="#76B043"/>
  <path d="M5.03516 34.5942H4.60938V35.02H5.03516V34.5942Z" fill="#76B043"/>
  <path d="M4.60938 35.02H4.18359V35.4458H4.60938V35.02Z" fill="#76B043"/>
  <path d="M4.18653 35.4453H3.76074V35.8711H4.18653V35.4453Z" fill="#76B043"/>
  <path d="M3.76074 35.8716H3.33496V36.2974H3.76074V35.8716Z" fill="#76B043"/>
  <path d="M7.58691 32.4683H7.16113V32.894H7.58691V32.4683Z" fill="#76B043"/>
  <path d="M8.0127 32.4683H7.58691V32.894H8.0127V32.4683Z" fill="#76B043"/>
  <path d="M8.43799 32.4683H8.01221V32.894H8.43799V32.4683Z" fill="#76B043"/>
  <path d="M7.58691 32.894H7.16113V33.3198H7.58691V32.894Z" fill="#76B043"/>
  <path d="M7.58691 33.3193H7.16113V33.7451H7.58691V33.3193Z" fill="#76B043"/>
  <path d="M8.00927 38.8486H8.43506V38.4229H8.00927V38.8486Z" fill="#76B043"/>
  <path d="M7.58398 38.8486H8.00977V38.4229H7.58398V38.8486Z" fill="#76B043"/>
  <path d="M7.16114 38.8486H7.58691V38.4229H7.16114V38.8486Z" fill="#76B043"/>
  <path d="M8.00927 38.4199H8.43506V37.9941H8.00927V38.4199Z" fill="#76B043"/>
  <path d="M7.58398 38.4199H8.00977V37.9941H7.58398V38.4199Z" fill="#76B043"/>
  <path d="M8.00927 37.9971H8.43506V37.5713H8.00927V37.9971Z" fill="#76B043"/>
  <path d="M8.00976 37.5718H8.43555V37.146H8.00976V37.5718Z" fill="#76B043"/>
  <path d="M7.58398 37.5718H8.00977V37.146H7.58398V37.5718Z" fill="#76B043"/>
  <path d="M7.16114 37.5718H7.58691V37.146H7.16114V37.5718Z" fill="#76B043"/>
  <path d="M8.00976 37.1455H8.43555V36.7197H8.00976V37.1455Z" fill="#76B043"/>
  <path d="M7.58398 37.1455H8.00977V36.7197H7.58398V37.1455Z" fill="#76B043"/>
  <path d="M8.00976 36.7202H8.43555V36.2944H8.00976V36.7202Z" fill="#76B043"/>
  <path d="M8.00976 36.2939H8.43555V35.8682H8.00976V36.2939Z" fill="#76B043"/>
  <path d="M7.58398 36.2939H8.00977V35.8682H7.58398V36.2939Z" fill="#76B043"/>
  <path d="M7.16114 36.2939H7.58691V35.8682H7.16114V36.2939Z" fill="#76B043"/>
  <path d="M6.73535 36.7197H7.16113V36.2939H6.73535V36.7197Z" fill="#76B043"/>
  <path d="M6.3125 37.1455H6.73828V36.7197H6.3125V37.1455Z" fill="#76B043"/>
  <path d="M5.88379 37.5713H6.30957V37.1455H5.88379V37.5713Z" fill="#76B043"/>
  <path d="M8.00976 35.8711H8.43555V35.4453H8.00976V35.8711Z" fill="#76B043"/>
  <path d="M7.58398 35.8711H8.00977V35.4453H7.58398V35.8711Z" fill="#76B043"/>
  <path d="M8.00976 35.4453H8.43555V35.0195H8.00976V35.4453Z" fill="#76B043"/>
  <path d="M8.00976 35.02H8.43555V34.5942H8.00976V35.02Z" fill="#76B043"/>
  <path d="M7.58398 35.02H8.00977V34.5942H7.58398V35.02Z" fill="#76B043"/>
  <path d="M7.16114 35.02H7.58691V34.5942H7.16114V35.02Z" fill="#76B043"/>
  <path d="M6.73535 35.4453H7.16113V35.0195H6.73535V35.4453Z" fill="#76B043"/>
  <path d="M6.3125 35.8716H6.73828V35.4458H6.3125V35.8716Z" fill="#76B043"/>
  <path d="M5.88379 36.2944H6.30957V35.8686H5.88379V36.2944Z" fill="#76B043"/>
  <path d="M5.45752 36.7197H5.8833V36.2939H5.45752V36.7197Z" fill="#76B043"/>
  <path d="M5.03516 37.1455H5.46094V36.7197H5.03516V37.1455Z" fill="#76B043"/>
  <path d="M4.60937 37.5718H5.03516V37.146H4.60937V37.5718Z" fill="#76B043"/>
  <path d="M8.00976 34.5938H8.43555V34.168H8.00976V34.5938Z" fill="#76B043"/>
  <path d="M7.58398 34.5938H8.00977V34.168H7.58398V34.5938Z" fill="#76B043"/>
  <path d="M8.00976 34.1685H8.43555V33.7427H8.00976V34.1685Z" fill="#76B043"/>
  <path d="M8.01025 33.7456H8.43604V33.3198H8.01025V33.7456Z" fill="#76B043"/>
  <path d="M7.58447 33.7456H8.01025V33.3198H7.58447V33.7456Z" fill="#76B043"/>
  <path d="M7.16163 33.7456H7.5874V33.3198H7.16163V33.7456Z" fill="#76B043"/>
  <path d="M6.73584 34.1689H7.16162V33.7432H6.73584V34.1689Z" fill="#76B043"/>
  <path d="M6.31299 34.5942H6.73877V34.1685H6.31299V34.5942Z" fill="#76B043"/>
  <path d="M5.88428 35.0205H6.31006V34.5947H5.88428V35.0205Z" fill="#76B043"/>
  <path d="M5.45849 35.4458H5.88428V35.02H5.45849V35.4458Z" fill="#76B043"/>
  <path d="M5.03565 35.8716H5.46143V35.4458H5.03565V35.8716Z" fill="#76B043"/>
  <path d="M4.60986 36.2944H5.03564V35.8686H4.60986V36.2944Z" fill="#76B043"/>
  <path d="M4.18701 36.7202H4.61279V36.2944H4.18701V36.7202Z" fill="#76B043"/>
  <path d="M3.7583 37.146H4.18408V36.7202H3.7583V37.146Z" fill="#76B043"/>
  <path d="M3.33252 37.5723H3.7583V37.1465H3.33252V37.5723Z" fill="#76B043"/>
  <path d="M8.01025 33.3198H8.43604V32.894H8.01025V33.3198Z" fill="#76B043"/>
  <path d="M8.01025 32.897H8.43604V32.4712H8.01025V32.897Z" fill="#76B043"/>
  <path d="M6.73535 38.8486H7.16113V38.4229H6.73535V38.8486Z" fill="#76B043"/>
  <path d="M6.3125 38.8486H6.73828V38.4229H6.3125V38.8486Z" fill="#76B043"/>
  <path d="M5.88379 38.8486H6.30957V38.4229H5.88379V38.8486Z" fill="#76B043"/>
  <path d="M6.73535 38.4199H7.16113V37.9941H6.73535V38.4199Z" fill="#76B043"/>
  <path d="M6.3125 38.4199H6.73828V37.9941H6.3125V38.4199Z" fill="#76B043"/>
  <path d="M6.73535 37.9971H7.16113V37.5713H6.73535V37.9971Z" fill="#76B043"/>
  <path d="M5.458 38.8486H5.88379V38.4229H5.458V38.8486Z" fill="#76B043"/>
  <path d="M5.03516 38.8486H5.46094V38.4229H5.03516V38.8486Z" fill="#76B043"/>
  <path d="M4.60888 38.8486H5.03467V38.4229H4.60888V38.8486Z" fill="#76B043"/>
  <path d="M5.458 38.4199H5.88379V37.9941H5.458V38.4199Z" fill="#76B043"/>
  <path d="M5.03516 38.4199H5.46094V37.9941H5.03516V38.4199Z" fill="#76B043"/>
  <path d="M5.458 37.9971H5.88379V37.5713H5.458V37.9971Z" fill="#76B043"/>
  <path d="M4.18701 38.8486H4.61279V38.4229H4.18701V38.8486Z" fill="#76B043"/>
  <path d="M3.7583 38.8486H4.18408V38.4229H3.7583V38.8486Z" fill="#76B043"/>
  <path d="M3.33252 38.8486H3.7583V38.4229H3.33252V38.8486Z" fill="#76B043"/>
  <path d="M4.18701 38.4199H4.61279V37.9941H4.18701V38.4199Z" fill="#76B043"/>
  <path d="M3.7583 38.4199H4.18408V37.9941H3.7583V38.4199Z" fill="#76B043"/>
  <path d="M4.18701 37.9971H4.61279V37.5713H4.18701V37.9971Z" fill="#76B043"/>
  <path d="M2.90918 38.8486H3.33496V38.4229H2.90918V38.8486Z" fill="#76B043"/>
  <path d="M2.48389 38.8486H2.90967V38.4229H2.48389V38.8486Z" fill="#76B043"/>
  <path d="M2.06054 38.8486H2.48633V38.4229H2.06054V38.8486Z" fill="#76B043"/>
  <path d="M2.90918 38.4199H3.33496V37.9941H2.90918V38.4199Z" fill="#76B043"/>
  <path d="M2.90918 37.9971H3.33496V37.5713H2.90918V37.9971Z" fill="#76B043"/>
</svg>